SplineFontDB: 3.0
FontName: CotswoldsItalic
FullName: Cotswolds Italic
FamilyName: Cotswolds
Weight: Book
Copyright: Copyright csyde 2016\n"Cotswolds" is based on "Cotswald" by "csyde" (http://fontstruct.com/fontstructors/show/1065264/csyde)
Version: 1.0
ItalicAngle: 0
UnderlinePosition: 25.3968
UnderlineWidth: 16.9312
Ascent: 819
Descent: 205
InvalidEm: 0
sfntRevision: 0x00010000
LayerCount: 2
Layer: 0 1 "Back" 1
Layer: 1 1 "Fore" 0
XUID: [1021 273 464692840 7089156]
StyleMap: 0x0001
FSType: 4
OS2Version: 2
OS2_WeightWidthSlopeOnly: 0
OS2_UseTypoMetrics: 0
CreationTime: 1479445954
ModificationTime: 1481656895
PfmFamily: 17
TTFWeight: 400
TTFWidth: 5
LineGap: 0
VLineGap: 0
Panose: 0 0 4 0 0 0 0 0 0 0
OS2TypoAscent: 725
OS2TypoAOffset: 0
OS2TypoDescent: -299
OS2TypoDOffset: 0
OS2TypoLinegap: 0
OS2WinAscent: 768
OS2WinAOffset: 0
OS2WinDescent: 299
OS2WinDOffset: 0
HheadAscent: 768
HheadAOffset: 0
HheadDescent: -299
HheadDOffset: 0
OS2SubXSize: 512
OS2SubYSize: 512
OS2SubXOff: 0
OS2SubYOff: -150
OS2SupXSize: 512
OS2SupYSize: 512
OS2SupXOff: 0
OS2SupYOff: 512
OS2StrikeYSize: 51
OS2StrikeYPos: 205
OS2CapHeight: 2901
OS2XHeight: 1706
OS2Vendor: 'FSTR'
OS2CodePages: 00000001.00000000
OS2UnicodeRanges: 80000001.00000000.00000000.00000000
MacStyle: 2
MarkAttachClasses: 1
DEI: 91125
ShortTable: maxp 16
  1
  0
  198
  129
  5
  127
  4
  2
  0
  0
  0
  0
  0
  0
  3
  1
EndShort

StartChar: .notdef
Encoding: 65536 -1 0
Width: 289
Flags: W
LayerCount: 2
Fore
SplineSet
360 102 m 1,0,-1
 387 218 l 1,1,-1
 280 218 l 1,2,-1
 253 102 l 1,3,-1
 360 102 l 1,0,-1
499 238 m 1,4,-1
 526 353 l 1,5,-1
 311 353 l 1,6,-1
 285 238 l 1,7,-1
 499 238 l 1,4,-1
423 372 m 1,8,-1
 449 487 l 1,9,-1
 342 487 l 1,10,-1
 316 372 l 1,11,-1
 423 372 l 1,8,-1
562 507 m 1,12,-1
 588 622 l 1,13,-1
 480 622 l 2,14,15
 435 622 435 622 398 588 c 0,16,17
 359 554 359 554 347 507 c 1,18,-1
 562 507 l 1,12,-1
0 0 m 1,19,-1
 167 725 l 1,20,-1
 842 725 l 1,21,-1
 674 0 l 1,22,-1
 0 0 l 1,19,-1
EndSplineSet
EndChar

StartChar: exclam
Encoding: 33 33 4
Width: 185
Flags: W
LayerCount: 2
Fore
SplineSet
40 0 m 1,0,-1
 10 43 l 1,1,-1
 20 85 l 1,2,-1
 70 128 l 1,3,-1
 109 128 l 1,4,-1
 139 85 l 1,5,-1
 129 43 l 1,6,-1
 79 0 l 1,7,-1
 40 0 l 1,0,-1
89 213 m 1,8,-1
 89 384 l 1,9,-1
 148 640 l 1,10,-1
 207 725 l 1,11,-1
 246 725 l 1,12,-1
 267 640 l 1,13,-1
 208 384 l 1,14,-1
 128 213 l 1,15,-1
 89 213 l 1,8,-1
EndSplineSet
EndChar

StartChar: quotedbl
Encoding: 34 34 5
Width: 344
Flags: W
LayerCount: 2
Fore
SplineSet
158 512 m 1,0,-1
 148 640 l 1,1,-1
 158 683 l 1,2,-1
 207 725 l 1,3,-1
 246 725 l 1,4,-1
 277 683 l 1,5,-1
 267 640 l 1,6,-1
 197 512 l 1,7,-1
 158 512 l 1,0,-1
316 512 m 1,8,-1
 307 640 l 1,9,-1
 317 683 l 1,10,-1
 365 725 l 1,11,-1
 405 725 l 1,12,-1
 436 683 l 1,13,-1
 426 640 l 1,14,-1
 356 512 l 1,15,-1
 316 512 l 1,8,-1
EndSplineSet
EndChar

StartChar: numbersign
Encoding: 35 35 6
Width: 503
Flags: W
LayerCount: 2
Fore
SplineSet
347 299 m 1,0,-1
 386 469 l 1,1,-1
 267 469 l 1,2,-1
 228 299 l 1,3,-1
 347 299 l 1,0,-1
149 128 m 1,4,-1
 178 256 l 1,5,-1
 59 256 l 1,6,-1
 69 299 l 1,7,-1
 188 299 l 1,8,-1
 227 469 l 1,9,-1
 108 469 l 1,10,-1
 118 512 l 1,11,-1
 237 512 l 1,12,-1
 267 640 l 1,13,-1
 307 640 l 1,14,-1
 277 512 l 1,15,-1
 396 512 l 1,16,-1
 426 640 l 1,17,-1
 465 640 l 1,18,-1
 435 512 l 1,19,-1
 554 512 l 1,20,-1
 544 469 l 1,21,-1
 425 469 l 1,22,-1
 386 299 l 1,23,-1
 505 299 l 1,24,-1
 495 256 l 1,25,-1
 376 256 l 1,26,-1
 347 128 l 1,27,-1
 308 128 l 1,28,-1
 337 256 l 1,29,-1
 218 256 l 1,30,-1
 189 128 l 1,31,-1
 149 128 l 1,4,-1
EndSplineSet
EndChar

StartChar: dollar
Encoding: 36 36 7
Width: 423
Flags: W
LayerCount: 2
Fore
SplineSet
258 85 m 1,0,-1
 303 106 l 1,1,-1
 326 128 l 1,2,-1
 357 171 l 1,3,-1
 366 213 l 1,4,-1
 347 299 l 1,5,-1
 277 341 l 1,6,-1
 218 85 l 1,7,-1
 258 85 l 1,0,-1
258 427 m 1,8,-1
 307 640 l 1,9,-1
 267 640 l 1,10,-1
 222 618 l 1,11,-1
 196 597 l 1,12,-1
 168 555 l 1,13,-1
 187 469 l 1,14,-1
 258 427 l 1,8,-1
159 0 m 1,15,-1
 169 43 l 1,16,-1
 129 43 l 1,17,-1
 60 85 l 1,18,-1
 30 128 l 1,19,-1
 39 171 l 1,20,-1
 85 193 l 1,21,-1
 119 171 l 1,22,-1
 128 128 l 1,23,-1
 144 106 l 1,24,-1
 179 85 l 1,25,-1
 238 341 l 1,26,-1
 198 341 l 1,27,-1
 163 362 l 1,28,-1
 119 427 l 1,29,-1
 108 469 l 1,30,-1
 128 555 l 1,31,-1
 188 640 l 1,32,-1
 277 683 l 1,33,-1
 317 683 l 1,34,-1
 326 725 l 1,35,-1
 365 725 l 1,36,-1
 356 683 l 1,37,-1
 396 683 l 1,38,-1
 465 640 l 1,39,-1
 495 597 l 1,40,-1
 485 555 l 1,41,-1
 440 534 l 1,42,-1
 406 555 l 1,43,-1
 396 597 l 1,44,-1
 381 618 l 1,45,-1
 346 640 l 1,46,-1
 297 427 l 1,47,-1
 337 427 l 1,48,-1
 372 406 l 1,49,-1
 415 341 l 1,50,-1
 426 299 l 1,51,-1
 397 171 l 1,52,-1
 337 85 l 1,53,-1
 248 43 l 1,54,-1
 208 43 l 1,55,-1
 198 0 l 1,56,-1
 159 0 l 1,15,-1
EndSplineSet
EndChar

StartChar: percent
Encoding: 37 37 8
Width: 463
Flags: W
LayerCount: 2
Fore
SplineSet
288.5 43 m 128,-1,1
 309 47 309 47 319 55 c 0,2,3
 329 64 329 64 337 85 c 0,4,5
 346 107 346 107 347.5 128.5 c 128,-1,6
 349 150 349 150 342 158 c 0,7,8
 336 167 336 167 318 171 c 0,9,10
 298 175 298 175 277 171 c 128,-1,11
 256 167 256 167 246 158 c 256,12,13
 236 149 236 149 228 128 c 0,14,15
 219 106 219 106 217.5 84.5 c 128,-1,16
 216 63 216 63 222 55 c 0,17,18
 228 46 228 46 248 43 c 0,19,0
 268 39 268 39 288.5 43 c 128,-1,1
238 0 m 0,20,21
 223 4 223 4 203 22 c 0,22,23
 194 30 194 30 189 43 c 0,24,25
 179 69 179 69 179 85 c 0,26,27
 179 107 179 107 189 128 c 0,28,29
 197 144 197 144 219 171 c 0,30,31
 229 184 229 184 243 193 c 0,32,33
 270 209 270 209 287 213 c 0,34,35
 309 218 309 218 327 213 c 0,36,37
 342 209 342 209 362 193 c 0,38,39
 371 185 371 185 376 171 c 0,40,41
 386 144 386 144 387 128 c 0,42,43
 387 106 387 106 377 85 c 0,44,45
 370 69 370 69 347 43 c 0,46,47
 337 30 337 30 322 22 c 0,48,49
 294 5 294 5 278 0 c 0,50,51
 257 -5 257 -5 238 0 c 0,20,21
247.5 555 m 128,-1,53
 269 559 269 559 278 567 c 0,54,55
 288 576 288 576 297 597 c 0,56,57
 306 619 306 619 307 640.5 c 128,-1,58
 308 662 308 662 302 670 c 0,59,60
 296 679 296 679 277 683 c 0,61,62
 257 687 257 687 236 683 c 128,-1,63
 215 679 215 679 206 670 c 0,64,65
 196 661 196 661 188 640 c 0,66,67
 179 618 179 618 177.5 596.5 c 128,-1,68
 176 575 176 575 182 567 c 0,69,70
 188 558 188 558 207 555 c 0,71,52
 226 551 226 551 247.5 555 c 128,-1,53
197 512 m 0,72,73
 182 516 182 516 163 534 c 0,74,75
 153 542 153 542 149 555 c 0,76,77
 139 581 139 581 138 597 c 0,78,79
 138 619 138 619 148 640 c 0,80,81
 156 657 156 657 178 683 c 0,82,83
 188 696 188 696 203 705 c 0,84,85
 230 721 230 721 246 725 c 0,86,87
 268 730 268 730 286 725 c 0,88,89
 301 721 301 721 322 705 c 0,90,91
 332 697 332 697 337 683 c 0,92,93
 347 657 347 657 346 640 c 0,94,95
 346 618 346 618 336 597 c 0,96,97
 328 580 328 580 308 555 c 0,98,99
 298 543 298 543 282 534 c 0,100,101
 254 517 254 517 237 512 c 0,102,103
 216 507 216 507 197 512 c 0,72,73
0 0 m 1,104,-1
 504 725 l 1,105,-1
 545 725 l 1,106,-1
 40 0 l 1,107,-1
 0 0 l 1,104,-1
EndSplineSet
EndChar

StartChar: ampersand
Encoding: 38 38 9
Width: 741
Flags: W
LayerCount: 2
Fore
SplineSet
327 43 m 1,0,-1
 417 85 l 1,1,-1
 466 128 l 1,2,-1
 485 157 l 1,3,-1
 306 413 l 1,4,-1
 248 384 l 1,5,-1
 198 341 l 1,6,-1
 138 256 l 1,7,-1
 128 213 l 1,8,-1
 149 128 l 1,9,-1
 179 85 l 1,10,-1
 248 43 l 1,11,-1
 327 43 l 1,0,-1
372 462 m 1,12,-1
 386 469 l 1,13,-1
 435 512 l 1,14,-1
 465 555 l 1,15,-1
 484 640 l 1,16,-1
 470 662 l 1,17,-1
 436 683 l 1,18,-1
 396 683 l 1,19,-1
 351 662 l 1,20,-1
 327 640 l 1,21,-1
 317 597 l 1,22,-1
 336 512 l 1,23,-1
 372 462 l 1,12,-1
198 0 m 1,24,-1
 94 63 l 1,25,-1
 50 128 l 1,26,-1
 39 171 l 1,27,-1
 59 256 l 1,28,-1
 119 341 l 1,29,-1
 168 384 l 1,30,-1
 287 440 l 1,31,-1
 267 469 l 1,32,-1
 247 555 l 1,33,-1
 257 597 l 1,34,-1
 317 683 l 1,35,-1
 405 725 l 1,36,-1
 445 725 l 1,37,-1
 515 683 l 1,38,-1
 535 597 l 1,39,-1
 525 555 l 1,40,-1
 496 512 l 1,41,-1
 421 449 l 1,42,-1
 390 434 l 1,43,-1
 530 234 l 1,44,-1
 537 230 l 1,45,-1
 608 333 l 1,46,-1
 560 362 l 1,47,-1
 565 384 l 1,48,-1
 724 384 l 1,49,-1
 719 362 l 1,50,-1
 674 341 l 1,51,-1
 565 184 l 1,52,-1
 650 63 l 1,53,-1
 684 43 l 1,54,-1
 674 0 l 1,55,-1
 635 0 l 1,56,-1
 565 43 l 1,57,-1
 515 114 l 1,58,-1
 496 85 l 1,59,-1
 446 43 l 1,60,-1
 357 0 l 1,61,-1
 198 0 l 1,24,-1
EndSplineSet
EndChar

StartChar: quotesingle
Encoding: 39 39 10
Width: 185
Flags: W
LayerCount: 2
Fore
SplineSet
158 512 m 1,0,-1
 148 640 l 1,1,-1
 158 683 l 1,2,-1
 207 725 l 1,3,-1
 246 725 l 1,4,-1
 277 683 l 1,5,-1
 267 640 l 1,6,-1
 197 512 l 1,7,-1
 158 512 l 1,0,-1
EndSplineSet
EndChar

StartChar: parenleft
Encoding: 40 40 11
Width: 304
Flags: W
LayerCount: 2
Fore
SplineSet
228 -43 m 1,0,-1
 124 22 l 1,1,2
 93 48 93 48 78 85 c 0,3,4
 45 172 45 172 49 213 c 0,5,6
 62 361 62 361 118 512 c 0,7,8
 133 553 133 553 207 640 c 0,9,10
 240 678 240 678 282 705 c 0,11,12
 374 762 374 762 416 768 c 1,13,-1
 406 725 l 1,14,-1
 317 683 l 1,15,16
 231 595 231 595 197 512 c 0,17,18
 137 364 137 364 128 213 c 0,19,20
 123 130 123 130 169 43 c 1,21,-1
 238 0 l 1,22,-1
 228 -43 l 1,0,-1
EndSplineSet
EndChar

StartChar: parenright
Encoding: 41 41 12
Width: 304
Flags: W
LayerCount: 2
Fore
SplineSet
-10 -43 m 1,0,-1
 0 0 l 1,1,-1
 89 43 l 1,2,3
 175 131 175 131 208 213 c 0,4,5
 269 363 269 363 277 512 c 0,6,7
 282 595 282 595 237 683 c 1,8,-1
 167 725 l 1,9,-1
 177 768 l 1,10,11
 216 762 216 762 282 705 c 0,12,13
 311 679 311 679 327 640 c 0,14,15
 360 553 360 553 356 512 c 0,16,17
 343 362 343 362 287 213 c 0,18,19
 272 172 272 172 199 85 c 0,20,21
 158 37 158 37 124 22 c 2,22,-1
 -10 -43 l 1,0,-1
EndSplineSet
EndChar

StartChar: asterisk
Encoding: 42 42 13
Width: 344
Flags: W
LayerCount: 2
Fore
SplineSet
198 341 m 1,0,-1
 227 469 l 1,1,-1
 94 406 l 1,2,-1
 104 449 l 1,3,-1
 237 512 l 1,4,-1
 133 575 l 1,5,-1
 143 618 l 1,6,-1
 247 555 l 1,7,-1
 277 683 l 1,8,-1
 317 683 l 1,9,-1
 287 555 l 1,10,-1
 421 618 l 1,11,-1
 411 575 l 1,12,-1
 277 512 l 1,13,-1
 382 449 l 1,14,-1
 372 406 l 1,15,-1
 267 469 l 1,16,-1
 238 341 l 1,17,-1
 198 341 l 1,0,-1
EndSplineSet
EndChar

StartChar: plus
Encoding: 43 43 14
Width: 423
Flags: W
LayerCount: 2
Fore
SplineSet
208 213 m 1,0,-1
 248 384 l 1,1,-1
 89 384 l 1,2,-1
 99 427 l 1,3,-1
 258 427 l 1,4,-1
 297 597 l 1,5,-1
 336 597 l 1,6,-1
 297 427 l 1,7,-1
 456 427 l 1,8,-1
 446 384 l 1,9,-1
 287 384 l 1,10,-1
 247 213 l 1,11,-1
 208 213 l 1,0,-1
EndSplineSet
EndChar

StartChar: comma
Encoding: 44 44 15
Width: 185
Flags: W
LayerCount: 2
Fore
SplineSet
20 -85 m 1,0,-1
 30 -43 l 1,1,-1
 59 -29 l 1,2,-1
 79 0 l 1,3,-1
 40 0 l 1,4,-1
 10 43 l 1,5,-1
 20 85 l 1,6,-1
 70 128 l 1,7,-1
 109 128 l 1,8,-1
 139 85 l 1,9,-1
 119 0 l 1,10,-1
 89 -43 l 1,11,-1
 39 -85 l 1,12,-1
 20 -85 l 1,0,-1
EndSplineSet
EndChar

StartChar: hyphen
Encoding: 45 45 16
Width: 423
Flags: W
LayerCount: 2
Fore
SplineSet
89 384 m 1,0,-1
 99 427 l 1,1,-1
 456 427 l 1,2,-1
 446 384 l 1,3,-1
 89 384 l 1,0,-1
EndSplineSet
EndChar

StartChar: period
Encoding: 46 46 17
Width: 185
Flags: W
LayerCount: 2
Fore
SplineSet
40 0 m 1,0,-1
 10 43 l 1,1,-1
 20 85 l 1,2,-1
 70 128 l 1,3,-1
 109 128 l 1,4,-1
 139 85 l 1,5,-1
 129 43 l 1,6,-1
 79 0 l 1,7,-1
 40 0 l 1,0,-1
EndSplineSet
EndChar

StartChar: slash
Encoding: 47 47 18
Width: 463
Flags: W
LayerCount: 2
Fore
SplineSet
0 0 m 1,0,-1
 504 725 l 1,1,-1
 545 725 l 1,2,-1
 40 0 l 1,3,-1
 0 0 l 1,0,-1
EndSplineSet
EndChar

StartChar: zero
Encoding: 48 48 19
Width: 582
Flags: W
LayerCount: 2
Fore
SplineSet
288 43 m 0,0,1
 359 67 359 67 377 85 c 0,2,3
 457 167 457 167 495 256 c 0,4,5
 542 362 542 362 545 469 c 0,6,7
 545 475 545 475 545 481 c 0,8,9
 545 564 545 564 505 640 c 0,10,11
 495 659 495 659 436 683 c 0,12,13
 417 690 417 690 396 683 c 0,14,15
 325 659 325 659 307 640 c 0,16,17
 227 558 227 558 188 469 c 0,18,19
 141 363 141 363 138 256 c 0,20,21
 135 167 135 167 179 85 c 0,22,23
 189 66 189 66 248 43 c 0,24,25
 266 36 266 36 288 43 c 0,0,1
238 0 m 0,26,27
 175 27 175 27 134 63 c 0,28,29
 105 89 105 89 88 128 c 0,30,31
 56 211 56 211 59 256 c 0,32,33
 65 362 65 362 108 469 c 0,34,35
 126 513 126 513 197 597 c 0,36,37
 230 635 230 635 272 662 c 0,38,39
 331 699 331 699 406 725 c 0,40,41
 428 733 428 733 446 725 c 0,42,43
 508 697 508 697 550 662 c 0,44,45
 579 636 579 636 594 597 c 0,46,47
 626 514 626 514 625 469 c 0,48,49
 619 363 619 363 575 256 c 0,50,51
 557 212 557 212 485 128 c 0,52,53
 452 90 452 90 412 63 c 0,54,55
 353 26 353 26 278 0 c 0,56,57
 257 -8 257 -8 238 0 c 0,26,27
EndSplineSet
EndChar

StartChar: one
Encoding: 49 49 20
Width: 225
Flags: W
LayerCount: 2
Fore
SplineSet
79 0 m 1,0,-1
 217 597 l 1,1,-1
 138 597 l 1,2,-1
 143 618 l 1,3,-1
 232 662 l 1,4,-1
 307 725 l 1,5,-1
 326 725 l 1,6,-1
 159 0 l 1,7,-1
 79 0 l 1,0,-1
EndSplineSet
EndChar

StartChar: two
Encoding: 50 50 21
Width: 503
Flags: W
LayerCount: 2
Fore
SplineSet
0 0 m 1,0,-1
 15 63 l 1,1,-1
 337 341 l 1,2,3
 385 388 385 388 425 469 c 0,4,5
 444 508 444 508 445 555 c 0,6,7
 445 589 445 589 426 640 c 0,8,9
 411 678 411 678 396 683 c 0,10,11
 341 699 341 699 277 683 c 1,12,-1
 143 618 l 1,13,-1
 153 662 l 1,14,-1
 286 725 l 1,15,16
 342 739 342 739 405 725 c 0,17,18
 432 719 432 719 475 683 c 0,19,20
 495 666 495 666 505 640 c 0,21,22
 525 590 525 590 525 555 c 0,23,24
 524 512 524 512 505 469 c 0,25,26
 481 417 481 417 446 384 c 2,27,-1
 99 85 l 1,28,-1
 377 85 l 1,29,-1
 427 128 l 1,30,-1
 466 128 l 1,31,-1
 378 0 l 1,32,-1
 0 0 l 1,0,-1
EndSplineSet
EndChar

StartChar: three
Encoding: 51 51 22
Width: 463
Flags: W
LayerCount: 2
Fore
SplineSet
0 0 m 0,0,1
 -3 14 -3 14 30 43 c 1,2,-1
 50 43 l 1,3,4
 126 65 126 65 179 85 c 0,5,6
 233 107 233 107 268 128 c 0,7,8
 296 145 296 145 318 171 c 0,9,10
 355 214 355 214 376 256 c 0,11,12
 388 278 388 278 386 299 c 0,13,14
 382 353 382 353 367 384 c 0,15,16
 361 397 361 397 332 406 c 0,17,18
 309 412 309 412 292 406 c 2,19,-1
 158 341 l 1,20,-1
 168 384 l 1,21,-1
 346 469 l 1,22,23
 394 503 394 503 406 555 c 0,24,25
 411 577 411 577 386 640 c 0,26,27
 371 677 371 677 356 683 c 0,28,29
 321 696 321 696 277 683 c 1,30,-1
 143 618 l 1,31,-1
 153 662 l 1,32,33
 207 702 207 702 286 725 c 0,34,35
 325 736 325 736 365 725 c 0,36,37
 395 717 395 717 436 683 c 0,38,39
 456 666 456 666 465 640 c 0,40,41
 490 577 490 577 485 555 c 0,42,43
 481 538 481 538 425 469 c 1,44,-1
 392 440 l 1,45,-1
 416 427 l 1,46,47
 439 402 439 402 446 384 c 0,48,49
 462 342 462 342 466 299 c 0,50,51
 467 277 467 277 456 256 c 0,52,53
 433 213 433 213 397 171 c 0,54,55
 374 142 374 142 347 128 c 0,56,57
 269 85 269 85 169 43 c 0,58,59
 108 17 108 17 40 0 c 0,60,61
 3 -9 3 -9 0 0 c 0,0,1
EndSplineSet
EndChar

StartChar: four
Encoding: 52 52 23
Width: 542
Flags: W
LayerCount: 2
Fore
SplineSet
347 299 m 1,0,-1
 421 618 l 1,1,-1
 148 299 l 1,2,-1
 347 299 l 1,0,-1
278 0 m 1,3,-1
 332 234 l 1,4,-1
 54 234 l 1,5,-1
 59 256 l 1,6,-1
 458 725 l 1,7,-1
 524 725 l 1,8,-1
 426 299 l 1,9,-1
 447 299 l 1,10,-1
 506 384 l 1,11,-1
 544 384 l 1,12,-1
 534 341 l 1,13,-1
 477 256 l 1,14,-1
 451 234 l 1,15,-1
 411 234 l 1,16,-1
 357 0 l 1,17,-1
 278 0 l 1,3,-1
EndSplineSet
EndChar

StartChar: five
Encoding: 53 53 24
Width: 463
Flags: W
LayerCount: 2
Fore
SplineSet
0 0 m 0,0,1
 -3 14 -3 14 31 43 c 1,2,-1
 50 43 l 1,3,4
 126 65 126 65 179 85 c 0,5,6
 233 107 233 107 268 128 c 0,7,8
 296 145 296 145 318 171 c 0,9,10
 355 214 355 214 377 256 c 0,11,12
 389 278 389 278 386 299 c 0,13,14
 383 342 383 342 367 384 c 0,15,16
 352 421 352 421 337 427 c 0,17,18
 310 437 310 437 258 427 c 1,19,-1
 129 384 l 1,20,-1
 76 384 l 1,21,-1
 260 725 l 1,22,-1
 485 725 l 1,23,-1
 535 768 l 1,24,-1
 575 768 l 1,25,-1
 485 640 l 1,26,-1
 267 640 l 1,27,-1
 156 435 l 1,28,-1
 228 469 l 1,29,30
 295 481 295 481 347 469 c 0,31,32
 374 463 374 463 416 427 c 0,33,34
 436 410 436 410 446 384 c 0,35,36
 462 342 462 342 466 299 c 0,37,38
 467 277 467 277 456 256 c 0,39,40
 433 213 433 213 397 171 c 0,41,42
 374 142 374 142 347 128 c 0,43,44
 269 85 269 85 169 43 c 0,45,46
 108 17 108 17 40 0 c 0,47,48
 3 -9 3 -9 0 0 c 0,0,1
EndSplineSet
EndChar

StartChar: six
Encoding: 54 54 25
Width: 463
Flags: W
LayerCount: 2
Fore
SplineSet
248 43 m 0,0,1
 266 49 266 49 298 85 c 0,2,3
 345 140 345 140 357 171 c 0,4,5
 383 236 383 236 386 299 c 0,6,7
 388 330 388 330 367 384 c 0,8,9
 354 416 354 416 337 427 c 0,10,11
 326 434 326 434 297 427 c 0,12,13
 176 396 176 396 168 384 c 0,14,15
 135 337 135 337 119 171 c 0,16,17
 116 144 116 144 139 85 c 0,18,19
 154 48 154 48 169 43 c 0,20,21
 205 29 205 29 248 43 c 0,0,1
159 0 m 0,22,23
 129 8 129 8 89 43 c 0,24,25
 69 59 69 59 60 85 c 0,26,27
 36 144 36 144 40 171 c 0,28,29
 62 343 62 343 108 469 c 0,30,31
 123 510 123 510 197 597 c 0,32,33
 220 625 220 625 272 662 c 0,34,35
 285 672 285 672 317 683 c 0,36,37
 433 726 433 726 446 725 c 1,38,-1
 436 683 l 1,39,-1
 307 640 l 1,40,41
 273 611 273 611 188 469 c 1,42,-1
 178 427 l 1,43,-1
 307 469 l 2,44,45
 332 475 332 475 347 469 c 0,46,47
 383 455 383 455 416 427 c 0,48,49
 436 410 436 410 446 384 c 0,50,51
 468 330 468 330 466 299 c 0,52,53
 462 234 462 234 437 171 c 0,54,55
 424 140 424 140 377 85 c 0,56,57
 356 59 356 59 327 43 c 0,58,59
 272 9 272 9 238 0 c 0,60,61
 197 -10 197 -10 159 0 c 0,22,23
EndSplineSet
EndChar

StartChar: seven
Encoding: 55 55 26
Width: 503
Flags: W
LayerCount: 2
Fore
SplineSet
59 0 m 1,0,-1
 505 640 l 1,1,-1
 227 640 l 1,2,-1
 217 597 l 1,3,-1
 196 597 l 1,4,-1
 167 725 l 1,5,-1
 591 725 l 1,6,-1
 198 0 l 1,7,-1
 59 0 l 1,0,-1
EndSplineSet
EndChar

StartChar: eight
Encoding: 56 56 27
Width: 503
Flags: W
LayerCount: 2
Fore
SplineSet
288 43 m 0,0,1
 305 47 305 47 337 85 c 0,2,3
 373 128 373 128 397 171 c 0,4,5
 408 192 408 192 406 213 c 0,6,7
 403 256 403 256 386 299 c 0,8,9
 375 330 375 330 357 341 c 0,10,11
 287 384 287 384 248 384 c 0,12,13
 235 384 235 384 198 341 c 0,14,15
 155 291 155 291 138 256 c 0,16,17
 118 213 118 213 119 171 c 0,18,19
 120 135 120 135 139 85 c 0,20,21
 153 47 153 47 169 43 c 0,22,23
 226 28 226 28 288 43 c 0,0,1
361 433 m 1,24,-1
 445 555 l 2,25,26
 455 573 455 573 455 597 c 0,27,28
 455 613 455 613 445 640 c 0,29,30
 439 654 439 654 431 662 c 0,31,32
 412 679 412 679 396 683 c 0,33,34
 377 688 377 688 356 683 c 0,35,36
 340 679 340 679 312 662 c 0,37,38
 298 653 298 653 287 640 c 0,39,40
 265 615 265 615 257 597 c 0,41,42
 246 573 246 573 247 555 c 0,43,44
 253 487 253 487 267 469 c 0,45,46
 268 468 268 468 340 440 c 1,47,-1
 361 433 l 1,24,-1
159 0 m 0,48,49
 132 6 132 6 89 43 c 0,50,51
 69 59 69 59 60 85 c 0,52,53
 40 136 40 136 40 171 c 0,54,55
 41 215 41 215 59 256 c 0,56,57
 74 288 74 288 119 341 c 0,58,59
 140 366 140 366 168 384 c 1,60,-1
 228 413 l 1,61,-1
 187 469 l 1,62,63
 172 507 172 507 168 555 c 0,64,65
 166 575 166 575 178 597 c 0,66,67
 214 663 214 663 237 683 c 0,68,69
 273 714 273 714 327 725 c 0,70,71
 390 737 390 737 446 725 c 0,72,73
 493 715 493 715 515 683 c 0,74,75
 530 662 530 662 535 597 c 0,76,77
 537 576 537 576 525 555 c 0,78,79
 502 512 502 512 465 469 c 0,80,81
 455 458 455 458 416 427 c 1,82,-1
 399 418 l 1,83,-1
 413 413 l 1,84,85
 435 397 435 397 446 384 c 0,86,87
 469 359 469 359 476 341 c 0,88,89
 495 292 495 292 495 256 c 0,90,91
 494 213 494 213 476 171 c 0,92,93
 458 134 458 134 417 85 c 0,94,95
 395 60 395 60 367 43 c 0,96,97
 305 6 305 6 278 0 c 0,98,99
 216 -13 216 -13 159 0 c 0,48,49
EndSplineSet
EndChar

StartChar: nine
Encoding: 57 57 28
Width: 463
Flags: W
LayerCount: 2
Fore
SplineSet
267 299 m 0,0,1
 388 330 388 330 396 341 c 0,2,3
 429 388 429 388 445 555 c 0,4,5
 448 583 448 583 426 640 c 0,6,7
 411 677 411 677 396 683 c 0,8,9
 359 697 359 697 317 683 c 0,10,11
 299 677 299 677 267 640 c 0,12,13
 220 586 220 586 207 555 c 0,14,15
 181 490 181 490 178 427 c 0,16,17
 177 397 177 397 198 341 c 0,18,19
 211 309 211 309 228 299 c 0,20,21
 238 292 238 292 267 299 c 0,0,1
119 0 m 1,22,-1
 129 43 l 1,23,-1
 258 85 l 1,24,25
 292 114 292 114 376 256 c 0,26,27
 402 299 402 299 386 299 c 1,28,-1
 257 256 l 2,29,30
 232 250 232 250 218 256 c 0,31,32
 181 270 181 270 148 299 c 0,33,34
 128 315 128 315 119 341 c 0,35,36
 97 395 97 395 99 427 c 0,37,38
 102 490 102 490 128 555 c 0,39,40
 141 586 141 586 188 640 c 0,41,42
 209 666 209 666 237 683 c 0,43,44
 293 718 293 718 327 725 c 0,45,46
 369 735 369 735 406 725 c 0,47,48
 436 717 436 717 475 683 c 0,49,50
 495 666 495 666 505 640 c 0,51,52
 529 581 529 581 525 555 c 0,53,54
 503 383 503 383 456 256 c 0,55,56
 441 215 441 215 366 128 c 0,57,58
 344 100 344 100 293 63 c 0,59,60
 279 53 279 53 248 43 c 2,61,-1
 119 0 l 1,22,-1
EndSplineSet
EndChar

StartChar: colon
Encoding: 58 58 29
Width: 185
Flags: W
LayerCount: 2
Fore
SplineSet
60 85 m 1,0,-1
 30 128 l 1,1,-1
 39 171 l 1,2,-1
 89 213 l 1,3,-1
 128 213 l 1,4,-1
 159 171 l 1,5,-1
 149 128 l 1,6,-1
 99 85 l 1,7,-1
 60 85 l 1,0,-1
129 384 m 1,8,-1
 99 427 l 1,9,-1
 108 469 l 1,10,-1
 158 512 l 1,11,-1
 197 512 l 1,12,-1
 227 469 l 1,13,-1
 218 427 l 1,14,-1
 168 384 l 1,15,-1
 129 384 l 1,8,-1
EndSplineSet
EndChar

StartChar: semicolon
Encoding: 59 59 30
Width: 185
Flags: W
LayerCount: 2
Fore
SplineSet
40 0 m 1,0,-1
 50 43 l 1,1,-1
 79 56 l 1,2,-1
 99 85 l 1,3,-1
 60 85 l 1,4,-1
 30 128 l 1,5,-1
 39 171 l 1,6,-1
 89 213 l 1,7,-1
 128 213 l 1,8,-1
 159 171 l 1,9,-1
 139 85 l 1,10,-1
 109 43 l 1,11,-1
 59 0 l 1,12,-1
 40 0 l 1,0,-1
129 384 m 1,13,-1
 99 427 l 1,14,-1
 108 469 l 1,15,-1
 158 512 l 1,16,-1
 197 512 l 1,17,-1
 227 469 l 1,18,-1
 218 427 l 1,19,-1
 168 384 l 1,20,-1
 129 384 l 1,13,-1
EndSplineSet
EndChar

StartChar: less
Encoding: 60 60 31
Width: 384
Flags: W
LayerCount: 2
Fore
SplineSet
362 193 m 1,0,-1
 84 362 l 1,1,-1
 94 406 l 1,2,-1
 450 575 l 1,3,-1
 440 534 l 1,4,-1
 129 384 l 1,5,-1
 371 234 l 1,6,-1
 362 193 l 1,0,-1
EndSplineSet
EndChar

StartChar: equal
Encoding: 61 61 32
Width: 423
Flags: W
LayerCount: 2
Fore
SplineSet
69 299 m 1,0,-1
 79 341 l 1,1,-1
 436 341 l 1,2,-1
 426 299 l 1,3,-1
 69 299 l 1,0,-1
99 427 m 1,4,-1
 108 469 l 1,5,-1
 465 469 l 1,6,-1
 456 427 l 1,7,-1
 99 427 l 1,4,-1
EndSplineSet
EndChar

StartChar: greater
Encoding: 62 62 33
Width: 384
Flags: W
LayerCount: 2
Fore
SplineSet
45 193 m 1,0,-1
 54 234 l 1,1,-1
 367 384 l 1,2,-1
 123 534 l 1,3,-1
 133 575 l 1,4,-1
 411 406 l 1,5,-1
 401 362 l 1,6,-1
 45 193 l 1,0,-1
EndSplineSet
EndChar

StartChar: question
Encoding: 63 63 34
Width: 542
Flags: W
LayerCount: 2
Fore
SplineSet
218 0 m 1,0,-1
 190 43 l 1,1,-1
 199 85 l 1,2,-1
 247 128 l 1,3,-1
 288 128 l 1,4,-1
 316 85 l 1,5,-1
 307 43 l 1,6,-1
 259 0 l 1,7,-1
 218 0 l 1,0,-1
247 213 m 1,8,-1
 257 256 l 1,9,10
 269 282 269 282 287 299 c 2,11,-1
 435 427 l 1,12,13
 465 458 465 458 496 512 c 0,14,15
 508 534 508 534 506 555 c 0,16,17
 503 598 503 598 485 640 c 0,18,19
 471 678 471 678 454 683 c 0,20,21
 413 696 413 696 356 683 c 1,22,-1
 267 640 l 1,23,24
 241 618 l 1,25,-1
 257 597 l 1,26,27
 258 571 258 571 247 555 c 0,28,29
 227 526 227 526 197 512 c 0,30,31
 174 502 174 502 158 512 c 0,32,33
 134 526 134 526 128 555 c 0,34,35
 123 580 123 580 138 597 c 0,36,37
 175 639 175 639 237 683 c 0,38,39
 290 720 290 720 327 725 c 0,40,41
 409 739 409 739 485 725 c 0,42,43
 511 720 511 720 555 683 c 0,44,45
 575 666 575 666 584 640 c 0,46,47
 601 598 601 598 604 555 c 0,48,49
 605 537 605 537 594 512 c 0,50,51
 582 485 582 485 564 469 c 2,52,-1
 366 299 l 1,53,-1
 308 213 l 1,54,-1
 247 213 l 1,8,-1
EndSplineSet
EndChar

StartChar: at
Encoding: 64 64 35
Width: 661
Flags: W
LayerCount: 2
Fore
SplineSet
367 213 m 1,0,-1
 411 234 l 2,1,2
 424 242 424 242 437 256 c 0,3,4
 462 286 462 286 466 299 c 0,5,6
 488 362 488 362 496 427 c 0,7,8
 497 440 497 440 486 469 c 0,9,10
 481 481 481 481 470 490 c 0,11,12
 444 513 444 513 436 512 c 0,13,14
 387 504 387 504 347 469 c 0,15,16
 321 447 321 447 287 384 c 0,17,18
 275 362 275 362 277 341 c 0,19,20
 283 278 283 278 297 256 c 1,21,-1
 367 213 l 1,0,-1
238 0 m 0,22,23
 197 10 197 10 134 63 c 0,24,25
 105 89 105 89 88 128 c 0,26,27
 56 211 56 211 59 256 c 0,28,29
 65 362 65 362 108 469 c 0,30,31
 126 513 126 513 197 597 c 0,32,33
 230 635 230 635 272 662 c 0,34,35
 355 713 355 713 406 725 c 0,36,37
 468 741 468 741 525 725 c 0,38,39
 570 713 570 713 629 662 c 0,40,41
 657 636 657 636 673 597 c 0,42,43
 705 514 705 514 704 469 c 0,44,45
 700 402 700 402 655 256 c 0,46,47
 651 244 651 244 624 213 c 0,48,49
 614 201 614 201 600 193 c 0,50,51
 569 174 569 174 556 171 c 0,52,53
 514 164 514 164 476 171 c 1,54,-1
 442 193 l 1,55,-1
 397 171 l 1,56,57
 355 164 355 164 318 171 c 0,58,59
 301 174 301 174 283 193 c 0,60,61
 257 222 257 222 239 256 c 0,62,63
 227 280 227 280 228 299 c 0,64,65
 236 364 236 364 258 427 c 0,66,67
 265 446 265 446 288 469 c 0,68,69
 323 505 323 505 362 534 c 0,70,71
 387 551 387 551 406 555 c 0,72,73
 448 562 448 562 485 555 c 0,74,75
 498 553 498 553 521 534 c 0,76,77
 531 526 531 526 536 512 c 0,78,79
 547 481 547 481 545 469 c 2,80,-1
 495 256 l 2,81,82
 494 240 494 240 526 213 c 0,83,84
 535 205 535 205 546 213 c 0,85,86
 568 232 568 232 575 256 c 0,87,88
 623 411 623 411 625 469 c 0,89,90
 628 558 628 558 584 640 c 0,91,92
 568 671 568 671 515 683 c 0,93,94
 459 695 459 695 396 683 c 0,95,96
 336 671 336 671 307 640 c 0,97,98
 227 558 227 558 188 469 c 0,99,100
 141 363 141 363 138 256 c 0,101,102
 135 167 135 167 179 85 c 0,103,104
 196 52 196 52 248 43 c 0,105,106
 324 29 324 29 407 43 c 0,107,108
 447 50 447 50 496 85 c 1,109,-1
 526 128 l 1,110,-1
 585 128 l 1,111,-1
 580 106 l 1,112,-1
 531 63 l 1,113,114
 436 8 436 8 397 0 c 0,115,116
 313 -18 313 -18 238 0 c 0,22,23
EndSplineSet
EndChar

StartChar: A
Encoding: 65 65 36
Width: 780
Flags: W
LayerCount: 2
Fore
SplineSet
525 213 m 1,0,-1
 451 534 l 1,1,-1
 229 213 l 1,2,-1
 525 213 l 1,0,-1
0 0 m 1,3,-1
 5 22 l 1,4,-1
 50 43 l 1,5,-1
 434 597 l 1,6,-1
 416 683 l 1,7,-1
 436 683 l 1,8,-1
 480 705 l 1,9,-1
 504 725 l 1,10,-1
 660 56 l 1,11,-1
 719 22 l 1,12,-1
 714 0 l 1,13,-1
 476 0 l 1,14,-1
 481 22 l 1,15,-1
 561 59 l 1,16,-1
 536 171 l 1,17,-1
 199 171 l 1,18,-1
 115 51 l 1,19,-1
 164 22 l 1,20,-1
 159 0 l 1,21,-1
 0 0 l 1,3,-1
EndSplineSet
EndChar

StartChar: B
Encoding: 66 66 37
Width: 582
Flags: W
LayerCount: 2
Fore
SplineSet
367 43 m 2,0,1
 378 43 378 43 412 63 c 0,2,3
 426 71 426 71 437 85 c 0,4,5
 460 114 460 114 466 128 c 0,6,7
 482 171 482 171 485 213 c 0,8,9
 486 227 486 227 477 256 c 0,10,11
 472 268 472 268 461 278 c 0,12,13
 437 298 437 298 426 299 c 2,14,-1
 228 299 l 1,15,-1
 169 43 l 1,16,-1
 367 43 l 2,0,1
396 341 m 2,17,18
 412 344 412 344 446 384 c 0,19,20
 489 435 489 435 505 469 c 0,21,22
 524 512 524 512 525 555 c 0,23,24
 525 589 525 589 505 640 c 0,25,26
 490 679 490 679 475 683 c 1,27,-1
 317 683 l 1,28,-1
 238 341 l 1,29,-1
 396 341 l 2,17,18
0 0 m 1,30,-1
 5 22 l 1,31,-1
 94 63 l 1,32,-1
 232 662 l 1,33,-1
 163 705 l 1,34,-1
 167 725 l 1,35,-1
 485 725 l 2,36,37
 508 723 508 723 555 683 c 0,38,39
 575 666 575 666 584 640 c 0,40,41
 604 590 604 590 604 555 c 0,42,43
 603 512 603 512 584 469 c 0,44,45
 569 435 569 435 525 384 c 1,46,-1
 476 341 l 1,47,-1
 510 319 l 1,48,49
 537 290 537 290 556 256 c 0,50,51
 566 233 566 233 565 213 c 0,52,53
 562 170 562 170 546 128 c 0,54,55
 539 108 539 108 516 85 c 0,56,57
 481 49 481 49 441 22 c 0,58,59
 412 2 412 2 397 0 c 2,60,-1
 0 0 l 1,30,-1
EndSplineSet
EndChar

StartChar: C
Encoding: 67 67 38
Width: 622
Flags: W
LayerCount: 2
Fore
SplineSet
238 0 m 0,0,1
 193 12 193 12 134 63 c 0,2,3
 105 89 105 89 88 128 c 0,4,5
 56 211 56 211 59 256 c 0,6,7
 65 362 65 362 108 469 c 0,8,9
 126 513 126 513 197 597 c 0,10,11
 230 635 230 635 272 662 c 0,12,13
 355 713 355 713 406 725 c 0,14,15
 468 740 468 740 525 725 c 1,16,-1
 622 666 l 1,17,-1
 664 725 l 1,18,-1
 684 725 l 1,19,-1
 644 555 l 1,20,-1
 604 555 l 1,21,-1
 584 640 l 1,22,23
 562 672 562 672 515 683 c 0,24,25
 459 695 459 695 396 683 c 0,26,27
 336 671 336 671 307 640 c 0,28,29
 227 558 227 558 188 469 c 0,30,31
 141 363 141 363 138 256 c 0,32,33
 135 167 135 167 179 85 c 0,34,35
 195 54 195 54 248 43 c 0,36,37
 314 28 314 28 367 43 c 1,38,-1
 546 128 l 1,39,-1
 585 128 l 1,40,-1
 580 106 l 1,41,-1
 357 0 l 1,42,43
 300 -17 300 -17 238 0 c 0,0,1
EndSplineSet
EndChar

StartChar: D
Encoding: 68 68 39
Width: 622
Flags: W
LayerCount: 2
Fore
SplineSet
327 43 m 1,0,1
 383 52 383 52 417 85 c 0,2,3
 497 167 497 167 535 256 c 0,4,5
 582 362 582 362 584 469 c 0,6,7
 587 558 587 558 545 640 c 0,8,9
 528 673 528 673 475 683 c 1,10,-1
 317 683 l 1,11,-1
 169 43 l 1,12,-1
 327 43 l 1,0,1
0 0 m 1,13,-1
 5 22 l 1,14,-1
 94 63 l 1,15,-1
 232 662 l 1,16,-1
 163 705 l 1,17,-1
 167 725 l 1,18,-1
 485 725 l 1,19,20
 521 720 521 720 589 662 c 0,21,22
 618 636 618 636 634 597 c 0,23,24
 666 514 666 514 663 469 c 0,25,26
 657 363 657 363 614 256 c 0,27,28
 596 212 596 212 526 128 c 0,29,30
 493 90 493 90 451 63 c 0,31,32
 356 5 356 5 317 0 c 1,33,-1
 0 0 l 1,13,-1
EndSplineSet
EndChar

StartChar: E
Encoding: 69 69 40
Width: 542
Flags: W
LayerCount: 2
Fore
SplineSet
0 0 m 1,0,-1
 5 22 l 1,1,-1
 94 63 l 1,2,-1
 232 662 l 1,3,-1
 163 705 l 1,4,-1
 167 725 l 1,5,-1
 564 725 l 1,6,-1
 608 746 l 1,7,-1
 574 597 l 1,8,-1
 555 597 l 1,9,-1
 545 640 l 1,10,-1
 475 683 l 1,11,-1
 317 683 l 1,12,-1
 248 384 l 1,13,-1
 385 384 l 1,14,-1
 445 469 l 1,15,-1
 465 469 l 1,16,-1
 416 256 l 1,17,-1
 396 256 l 1,18,-1
 375 341 l 1,19,-1
 238 341 l 1,20,-1
 169 43 l 1,21,-1
 367 43 l 1,22,-1
 456 85 l 1,23,-1
 485 128 l 1,24,-1
 506 128 l 1,25,-1
 476 0 l 1,26,-1
 0 0 l 1,0,-1
EndSplineSet
EndChar

StartChar: F
Encoding: 70 70 41
Width: 503
Flags: W
LayerCount: 2
Fore
SplineSet
0 0 m 1,0,-1
 5 22 l 1,1,-1
 94 63 l 1,2,-1
 232 662 l 1,3,-1
 163 705 l 1,4,-1
 167 725 l 1,5,-1
 564 725 l 1,6,-1
 608 746 l 1,7,-1
 574 597 l 1,8,-1
 555 597 l 1,9,-1
 545 640 l 1,10,-1
 475 683 l 1,11,-1
 317 683 l 1,12,-1
 248 384 l 1,13,-1
 385 384 l 1,14,-1
 445 469 l 1,15,-1
 465 469 l 1,16,-1
 416 256 l 1,17,-1
 396 256 l 1,18,-1
 375 341 l 1,19,-1
 238 341 l 1,20,-1
 174 63 l 1,21,-1
 243 22 l 1,22,-1
 238 0 l 1,23,-1
 0 0 l 1,0,-1
EndSplineSet
EndChar

StartChar: G
Encoding: 71 71 42
Width: 661
Flags: W
LayerCount: 2
Fore
SplineSet
240 7 m 0,0,1
 189 20 189 20 134 63 c 0,2,3
 104 87 104 87 88 128 c 0,4,5
 56 211 56 211 59 256 c 0,6,7
 65 362 65 362 108 469 c 0,8,9
 126 513 126 513 197 597 c 0,10,11
 230 635 230 635 272 662 c 0,12,13
 355 713 355 713 406 725 c 0,14,15
 468 740 468 740 525 725 c 1,16,-1
 622 666 l 1,17,-1
 664 725 l 1,18,-1
 684 725 l 1,19,-1
 644 555 l 1,20,-1
 604 555 l 1,21,-1
 584 640 l 1,22,23
 562 672 562 672 515 683 c 0,24,25
 459 695 459 695 396 683 c 0,26,27
 336 671 336 671 307 640 c 0,28,29
 227 558 227 558 188 469 c 0,30,31
 141 363 141 363 138 256 c 0,32,33
 135 167 135 167 179 85 c 0,34,35
 195 54 195 54 248 43 c 0,36,37
 306 31 306 31 367 43 c 0,38,39
 419 53 419 53 456 85 c 0,40,41
 494 118 494 118 516 171 c 1,42,-1
 550 319 l 1,43,-1
 481 362 l 1,44,-1
 486 384 l 1,45,-1
 644 384 l 1,46,-1
 595 171 l 1,47,-1
 630 150 l 1,48,-1
 625 128 l 1,49,-1
 359 7 l 1,50,51
 306 -9 306 -9 240 7 c 0,0,1
EndSplineSet
EndChar

StartChar: H
Encoding: 72 72 43
Width: 701
Flags: W
LayerCount: 2
Fore
SplineSet
0 0 m 1,0,-1
 5 22 l 1,1,-1
 94 63 l 1,2,-1
 232 662 l 1,3,-1
 163 705 l 1,4,-1
 167 725 l 1,5,-1
 405 725 l 1,6,-1
 401 705 l 1,7,-1
 312 662 l 1,8,-1
 248 384 l 1,9,-1
 565 384 l 1,10,-1
 629 662 l 1,11,-1
 560 705 l 1,12,-1
 564 725 l 1,13,-1
 803 725 l 1,14,-1
 798 705 l 1,15,-1
 708 662 l 1,16,-1
 570 63 l 1,17,-1
 640 22 l 1,18,-1
 635 0 l 1,19,-1
 397 0 l 1,20,-1
 402 22 l 1,21,-1
 491 63 l 1,22,-1
 555 341 l 1,23,-1
 238 341 l 1,24,-1
 174 63 l 1,25,-1
 243 22 l 1,26,-1
 238 0 l 1,27,-1
 0 0 l 1,0,-1
EndSplineSet
EndChar

StartChar: I
Encoding: 73 73 44
Width: 304
Flags: W
LayerCount: 2
Fore
SplineSet
0 0 m 1,0,-1
 5 22 l 1,1,-1
 94 63 l 1,2,-1
 232 662 l 1,3,-1
 163 705 l 1,4,-1
 167 725 l 1,5,-1
 405 725 l 1,6,-1
 401 705 l 1,7,-1
 312 662 l 1,8,-1
 174 63 l 1,9,-1
 243 22 l 1,10,-1
 238 0 l 1,11,-1
 0 0 l 1,0,-1
EndSplineSet
EndChar

StartChar: J
Encoding: 74 74 45
Width: 423
Flags: W
LayerCount: 2
Fore
SplineSet
40 -171 m 0,0,1
 25 -167 25 -167 5 -150 c 0,2,3
 -5 -142 -5 -142 -9 -128 c 0,4,5
 -22 -96 -22 -96 -20 -85 c 0,6,7
 -13 -56 -13 -56 11 -43 c 0,8,9
 25 -34 25 -34 49 -43 c 0,10,11
 59 -47 59 -47 65 -63 c 1,12,-1
 59 -85 l 1,13,14
 60 -119 60 -119 67 -119 c 0,15,16
 101 -119 101 -119 139 -85 c 0,17,18
 186 -42 186 -42 198 0 c 2,19,-1
 351 662 l 1,20,-1
 282 705 l 1,21,-1
 286 725 l 1,22,-1
 524 725 l 1,23,-1
 520 705 l 1,24,-1
 431 662 l 1,25,-1
 288 43 l 2,26,27
 277 6 277 6 198 -85 c 0,28,29
 175 -113 175 -113 124 -150 c 0,30,31
 103 -165 103 -165 80 -171 c 0,32,33
 59 -176 59 -176 40 -171 c 0,0,1
EndSplineSet
EndChar

StartChar: K
Encoding: 75 75 46
Width: 661
Flags: W
LayerCount: 2
Fore
SplineSet
0 0 m 1,0,-1
 5 22 l 1,1,-1
 94 63 l 1,2,-1
 232 662 l 1,3,-1
 163 705 l 1,4,-1
 167 725 l 1,5,-1
 405 725 l 1,6,-1
 401 705 l 1,7,-1
 312 662 l 1,8,-1
 248 384 l 1,9,-1
 594 683 l 1,10,-1
 560 705 l 1,11,-1
 564 725 l 1,12,-1
 723 725 l 1,13,-1
 718 705 l 1,14,-1
 629 662 l 1,15,-1
 306 384 l 1,16,-1
 531 63 l 1,17,-1
 600 22 l 1,18,-1
 595 0 l 1,19,-1
 397 0 l 1,20,-1
 402 22 l 1,21,-1
 446 43 l 1,22,-1
 238 341 l 1,23,-1
 174 63 l 1,24,-1
 243 22 l 1,25,-1
 238 0 l 1,26,-1
 0 0 l 1,0,-1
EndSplineSet
EndChar

StartChar: L
Encoding: 76 76 47
Width: 542
Flags: W
LayerCount: 2
Fore
SplineSet
0 0 m 1,0,-1
 5 22 l 1,1,-1
 94 63 l 1,2,-1
 232 662 l 1,3,-1
 163 705 l 1,4,-1
 167 725 l 1,5,-1
 405 725 l 1,6,-1
 401 705 l 1,7,-1
 312 662 l 1,8,-1
 169 43 l 1,9,-1
 367 43 l 1,10,-1
 456 85 l 1,11,-1
 485 128 l 1,12,-1
 506 128 l 1,13,-1
 476 0 l 1,14,-1
 0 0 l 1,0,-1
EndSplineSet
EndChar

StartChar: M
Encoding: 77 77 48
Width: 939
Flags: W
LayerCount: 2
Fore
SplineSet
0 0 m 1,0,-1
 5 22 l 1,1,-1
 94 63 l 1,2,-1
 232 662 l 1,3,-1
 163 705 l 1,4,-1
 167 725 l 1,5,-1
 326 725 l 1,6,-1
 466 128 l 1,7,-1
 882 725 l 1,8,-1
 1041 725 l 1,9,-1
 1036 705 l 1,10,-1
 946 662 l 1,11,-1
 808 63 l 1,12,-1
 878 22 l 1,13,-1
 873 0 l 1,14,-1
 635 0 l 1,15,-1
 640 22 l 1,16,-1
 729 63 l 1,17,-1
 852 597 l 1,18,-1
 436 0 l 1,19,-1
 397 0 l 1,20,-1
 257 597 l 1,21,-1
 134 63 l 1,22,-1
 203 22 l 1,23,-1
 198 0 l 1,24,-1
 0 0 l 1,0,-1
EndSplineSet
EndChar

StartChar: N
Encoding: 78 78 49
Width: 701
Flags: W
LayerCount: 2
Fore
SplineSet
0 0 m 1,0,-1
 5 22 l 1,1,-1
 94 63 l 1,2,-1
 232 662 l 1,3,-1
 163 705 l 1,4,-1
 167 725 l 1,5,-1
 338 725 l 1,6,-1
 556 171 l 1,7,-1
 669 662 l 1,8,-1
 599 705 l 1,9,-1
 604 725 l 1,10,-1
 803 725 l 1,11,-1
 798 705 l 1,12,-1
 708 662 l 1,13,-1
 555 0 l 1,14,-1
 516 0 l 1,15,-1
 267 640 l 1,16,-1
 134 63 l 1,17,-1
 203 22 l 1,18,-1
 198 0 l 1,19,-1
 0 0 l 1,0,-1
EndSplineSet
EndChar

StartChar: O
Encoding: 79 79 50
Width: 661
Flags: W
LayerCount: 2
Fore
SplineSet
367 43 m 0,0,1
 426 55 426 55 456 85 c 0,2,3
 536 167 536 167 575 256 c 0,4,5
 622 362 622 362 625 469 c 0,6,7
 628 558 628 558 584 640 c 0,8,9
 568 671 568 671 515 683 c 0,10,11
 459 695 459 695 396 683 c 0,12,13
 336 671 336 671 307 640 c 0,14,15
 227 558 227 558 188 469 c 0,16,17
 141 363 141 363 138 256 c 0,18,19
 135 167 135 167 179 85 c 0,20,21
 195 54 195 54 248 43 c 0,22,23
 306 31 306 31 367 43 c 0,0,1
238 0 m 0,24,25
 193 12 193 12 134 63 c 0,26,27
 105 89 105 89 88 128 c 0,28,29
 56 211 56 211 59 256 c 0,30,31
 65 362 65 362 108 469 c 0,32,33
 126 513 126 513 197 597 c 0,34,35
 230 635 230 635 272 662 c 0,36,37
 355 713 355 713 406 725 c 0,38,39
 468 741 468 741 525 725 c 0,40,41
 570 713 570 713 629 662 c 0,42,43
 657 636 657 636 673 597 c 0,44,45
 705 514 705 514 704 469 c 0,46,47
 698 363 698 363 655 256 c 0,48,49
 636 212 636 212 565 128 c 0,50,51
 532 90 532 90 491 63 c 0,52,53
 408 12 408 12 357 0 c 0,54,55
 293 -16 293 -16 238 0 c 0,24,25
EndSplineSet
EndChar

StartChar: P
Encoding: 80 80 51
Width: 542
Flags: W
LayerCount: 2
Fore
SplineSet
396 341 m 2,0,1
 412 344 412 344 446 384 c 0,2,3
 489 435 489 435 505 469 c 0,4,5
 524 512 524 512 525 555 c 0,6,7
 525 589 525 589 505 640 c 0,8,9
 490 679 490 679 475 683 c 1,10,-1
 317 683 l 1,11,-1
 238 341 l 1,12,-1
 396 341 l 2,0,1
0 0 m 1,13,-1
 5 22 l 1,14,-1
 94 63 l 1,15,-1
 232 662 l 1,16,-1
 163 705 l 1,17,-1
 167 725 l 1,18,-1
 485 725 l 2,19,20
 508 723 508 723 555 683 c 0,21,22
 575 666 575 666 584 640 c 0,23,24
 604 590 604 590 604 555 c 0,25,26
 603 512 603 512 584 469 c 0,27,28
 569 435 569 435 525 384 c 0,29,30
 504 358 504 358 476 341 c 0,31,32
 414 303 414 303 386 299 c 1,33,-1
 228 299 l 1,34,-1
 174 63 l 1,35,-1
 243 22 l 1,36,-1
 238 0 l 1,37,-1
 0 0 l 1,13,-1
EndSplineSet
EndChar

StartChar: Q
Encoding: 81 81 52
Width: 661
Flags: W
LayerCount: 2
Fore
SplineSet
367 43 m 0,0,1
 426 55 426 55 456 85 c 0,2,3
 536 167 536 167 575 256 c 0,4,5
 622 362 622 362 625 469 c 0,6,7
 628 558 628 558 584 640 c 0,8,9
 568 671 568 671 515 683 c 0,10,11
 459 695 459 695 396 683 c 0,12,13
 336 671 336 671 307 640 c 0,14,15
 227 558 227 558 188 469 c 0,16,17
 141 363 141 363 138 256 c 0,18,19
 135 167 135 167 179 85 c 0,20,21
 195 54 195 54 248 43 c 0,22,23
 306 31 306 31 367 43 c 0,0,1
407 -128 m 0,24,25
 392 -124 392 -124 373 -106 c 0,26,27
 364 -98 364 -98 358 -85 c 2,28,-1
 347 -43 l 1,29,30
 329 -5 329 -5 317 0 c 1,31,-1
 238 0 l 1,32,33
 188 16 188 16 134 63 c 0,34,35
 105 89 105 89 88 128 c 0,36,37
 56 211 56 211 59 256 c 0,38,39
 65 362 65 362 108 469 c 0,40,41
 126 513 126 513 197 597 c 0,42,43
 230 635 230 635 272 662 c 0,44,45
 355 713 355 713 406 725 c 0,46,47
 468 741 468 741 525 725 c 0,48,49
 570 713 570 713 629 662 c 0,50,51
 657 636 657 636 673 597 c 0,52,53
 705 514 705 514 704 469 c 0,54,55
 698 363 698 363 655 256 c 0,56,57
 636 212 636 212 565 128 c 0,58,59
 532 88 532 88 491 63 c 1,60,-1
 357 0 l 1,61,62
 353 -16 353 -16 462 -63 c 0,63,64
 479 -69 479 -69 502 -63 c 1,65,-1
 590 -22 l 1,66,-1
 581 -63 l 1,67,-1
 447 -128 l 2,68,69
 430 -134 430 -134 407 -128 c 0,24,25
EndSplineSet
EndChar

StartChar: R
Encoding: 82 82 53
Width: 622
Flags: W
LayerCount: 2
Fore
SplineSet
396 341 m 2,0,1
 412 344 412 344 446 384 c 0,2,3
 489 435 489 435 505 469 c 0,4,5
 524 512 524 512 525 555 c 0,6,7
 525 589 525 589 505 640 c 0,8,9
 490 679 490 679 475 683 c 1,10,-1
 317 683 l 1,11,-1
 238 341 l 1,12,-1
 396 341 l 2,0,1
0 0 m 1,13,-1
 5 22 l 1,14,-1
 94 63 l 1,15,-1
 232 662 l 1,16,-1
 163 705 l 1,17,-1
 167 725 l 1,18,-1
 485 725 l 2,19,20
 508 723 508 723 555 683 c 0,21,22
 575 666 575 666 584 640 c 0,23,24
 604 590 604 590 604 555 c 0,25,26
 603 512 603 512 584 469 c 0,27,28
 569 435 569 435 525 384 c 0,29,30
 509 365 509 365 476 341 c 1,31,-1
 440 325 l 1,32,-1
 502 56 l 1,33,-1
 560 22 l 1,34,-1
 555 0 l 1,35,-1
 436 0 l 1,36,-1
 366 299 l 1,37,-1
 228 299 l 1,38,-1
 174 63 l 1,39,-1
 243 22 l 1,40,-1
 238 0 l 1,41,-1
 0 0 l 1,13,-1
EndSplineSet
EndChar

StartChar: S
Encoding: 83 83 54
Width: 463
Flags: W
LayerCount: 2
Fore
SplineSet
0 0 m 1,0,-1
 30 128 l 1,1,-1
 70 128 l 1,2,-1
 99 85 l 1,3,4
 140 50 140 50 169 43 c 0,5,6
 213 34 213 34 288 43 c 0,7,8
 301 45 301 45 332 63 c 0,9,10
 345 70 345 70 356 85 c 0,11,12
 378 110 378 110 387 128 c 0,13,14
 399 154 399 154 397 171 c 0,15,16
 388 253 388 253 370 285 c 0,17,18
 354 313 354 313 301 327 c 1,19,-1
 218 341 l 1,20,21
 171 355 171 355 163 362 c 0,22,23
 142 381 142 381 119 427 c 0,24,25
 107 451 107 451 108 469 c 0,26,27
 117 547 117 547 138 597 c 0,28,29
 161 651 161 651 198 683 c 0,30,31
 234 714 234 714 287 725 c 0,32,33
 350 737 350 737 406 725 c 1,34,-1
 475 683 l 1,35,-1
 504 725 l 1,36,-1
 525 725 l 1,37,-1
 495 597 l 1,38,-1
 455 597 l 1,39,-1
 426 640 l 1,40,41
 386 675 386 675 356 683 c 0,42,43
 325 691 325 691 277 683 c 0,44,45
 264 681 264 681 232 662 c 0,46,47
 217 653 217 653 206 640 c 0,48,49
 186 616 186 616 178 597 c 0,50,51
 167 572 167 572 168 555 c 0,52,53
 172 492 172 492 187 469 c 0,54,55
 198 453 198 453 245 439 c 1,56,-1
 337 427 l 2,57,58
 342 427 342 427 406 384 c 0,59,60
 424 372 424 372 436 341 c 0,61,62
 457 285 457 285 456 256 c 0,63,64
 454 193 454 193 427 128 c 0,65,66
 406 76 406 76 367 43 c 0,67,68
 326 8 326 8 278 0 c 0,69,70
 195 -14 195 -14 119 0 c 1,71,-1
 50 43 l 1,72,-1
 21 0 l 1,73,-1
 0 0 l 1,0,-1
EndSplineSet
EndChar

StartChar: T
Encoding: 84 84 55
Width: 622
Flags: W
LayerCount: 2
Fore
SplineSet
159 0 m 1,0,-1
 164 22 l 1,1,-1
 253 63 l 1,2,-1
 396 683 l 1,3,-1
 237 683 l 1,4,-1
 188 640 l 1,5,-1
 158 597 l 1,6,-1
 138 597 l 1,7,-1
 172 746 l 1,8,-1
 207 725 l 1,9,-1
 684 725 l 1,10,-1
 727 746 l 1,11,-1
 693 597 l 1,12,-1
 673 597 l 1,13,-1
 664 640 l 1,14,-1
 634 683 l 1,15,-1
 475 683 l 1,16,-1
 332 63 l 1,17,-1
 402 22 l 1,18,-1
 397 0 l 1,19,-1
 159 0 l 1,0,-1
EndSplineSet
EndChar

StartChar: U
Encoding: 85 85 56
Width: 701
Flags: W
LayerCount: 2
Fore
SplineSet
238 0 m 0,0,1
 212 5 212 5 169 43 c 0,2,3
 149 59 149 59 139 85 c 0,4,5
 115 146 115 146 119 171 c 2,6,-1
 232 662 l 1,7,-1
 163 705 l 1,8,-1
 167 725 l 1,9,-1
 405 725 l 1,10,-1
 401 705 l 1,11,-1
 312 662 l 1,12,-1
 199 171 l 2,13,14
 196 155 196 155 209 128 c 0,15,16
 228 92 228 92 253 63 c 0,17,18
 271 44 271 44 288 43 c 0,19,20
 347 35 347 35 407 43 c 0,21,22
 425 45 425 45 451 63 c 0,23,24
 491 92 491 92 526 128 c 0,25,26
 551 154 551 154 556 171 c 2,27,-1
 669 662 l 1,28,-1
 599 705 l 1,29,-1
 604 725 l 1,30,-1
 803 725 l 1,31,-1
 798 705 l 1,32,-1
 708 662 l 1,33,-1
 595 171 l 2,34,35
 588 147 588 147 536 85 c 0,36,37
 514 59 514 59 486 43 c 0,38,39
 425 5 425 5 397 0 c 0,40,41
 314 -14 314 -14 238 0 c 0,0,1
EndSplineSet
EndChar

StartChar: V
Encoding: 86 86 57
Width: 820
Flags: W
LayerCount: 2
Fore
SplineSet
378 0 m 1,0,-1
 220 669 l 1,1,-1
 163 705 l 1,2,-1
 167 725 l 1,3,-1
 405 725 l 1,4,-1
 401 705 l 1,5,-1
 320 666 l 1,6,-1
 441 150 l 1,7,-1
 806 674 l 1,8,-1
 758 705 l 1,9,-1
 763 725 l 1,10,-1
 922 725 l 1,11,-1
 917 705 l 1,12,-1
 872 683 l 1,13,-1
 397 0 l 1,14,-1
 378 0 l 1,0,-1
EndSplineSet
EndChar

StartChar: W
Encoding: 87 87 58
Width: 979
Flags: W
LayerCount: 2
Fore
SplineSet
606 534 m 1,0,-1
 683 677 l 1,1,-1
 639 705 l 1,2,-1
 594 683 l 1,3,-1
 604 555 l 1,4,-1
 604 554 l 1,5,-1
 606 534 l 1,0,-1
278 0 m 1,6,-1
 225 666 l 1,7,-1
 163 705 l 1,8,-1
 167 725 l 1,9,-1
 365 725 l 1,10,-1
 361 705 l 1,11,-1
 317 683 l 1,12,-1
 360 128 l 1,13,-1
 364 85 l 1,14,-1
 525 384 l 1,15,-1
 503 666 l 1,16,-1
 441 705 l 1,17,-1
 445 725 l 1,18,-1
 803 725 l 1,19,-1
 798 705 l 1,20,-1
 717 666 l 1,21,-1
 611 469 l 1,22,-1
 638 128 l 1,23,-1
 642 85 l 1,24,-1
 961 677 l 1,25,-1
 917 705 l 1,26,-1
 922 725 l 1,27,-1
 1080 725 l 1,28,-1
 1075 705 l 1,29,-1
 994 666 l 1,30,-1
 635 0 l 1,31,-1
 555 0 l 1,32,-1
 532 299 l 1,33,-1
 529 319 l 1,34,-1
 357 0 l 1,35,-1
 278 0 l 1,6,-1
EndSplineSet
EndChar

StartChar: X
Encoding: 88 88 59
Width: 701
Flags: W
LayerCount: 2
Fore
SplineSet
29 0 m 1,0,-1
 34 22 l 1,1,-1
 76 43 l 1,2,-1
 330 341 l 1,3,-1
 349 362 l 1,4,-1
 340 384 l 1,5,-1
 232 662 l 1,6,-1
 163 705 l 1,7,-1
 167 725 l 1,8,-1
 405 725 l 1,9,-1
 401 705 l 1,10,-1
 335 672 l 1,11,-1
 429 427 l 1,12,-1
 438 406 l 1,13,-1
 674 683 l 1,14,-1
 639 705 l 1,15,-1
 644 725 l 1,16,-1
 771 725 l 1,17,-1
 766 705 l 1,18,-1
 726 683 l 1,19,-1
 473 384 l 1,20,-1
 454 362 l 1,21,-1
 463 341 l 1,22,-1
 570 63 l 1,23,-1
 640 22 l 1,24,-1
 635 0 l 1,25,-1
 397 0 l 1,26,-1
 402 22 l 1,27,-1
 468 53 l 1,28,-1
 373 299 l 1,29,-1
 364 319 l 1,30,-1
 129 43 l 1,31,-1
 164 22 l 1,32,-1
 159 0 l 1,33,-1
 29 0 l 1,0,-1
EndSplineSet
EndChar

StartChar: Y
Encoding: 89 89 60
Width: 661
Flags: W
LayerCount: 2
Fore
SplineSet
198 0 m 1,0,-1
 203 22 l 1,1,-1
 293 63 l 1,2,-1
 357 341 l 1,3,-1
 232 662 l 1,4,-1
 163 705 l 1,5,-1
 167 725 l 1,6,-1
 405 725 l 1,7,-1
 401 705 l 1,8,-1
 335 672 l 1,9,-1
 429 427 l 1,10,-1
 438 406 l 1,11,-1
 674 683 l 1,12,-1
 639 705 l 1,13,-1
 644 725 l 1,14,-1
 763 725 l 1,15,-1
 758 705 l 1,16,-1
 735 693 l 1,17,-1
 726 683 l 1,18,-1
 473 384 l 1,19,-1
 436 341 l 1,20,-1
 372 63 l 1,21,-1
 441 22 l 1,22,-1
 436 0 l 1,23,-1
 198 0 l 1,0,-1
EndSplineSet
EndChar

StartChar: Z
Encoding: 90 90 61
Width: 661
Flags: W
LayerCount: 2
Fore
SplineSet
0 0 m 1,0,-1
 573 672 l 1,1,-1
 555 683 l 1,2,-1
 256 683 l 1,3,-1
 206 640 l 1,4,-1
 188 640 l 1,5,-1
 207 725 l 1,6,-1
 723 725 l 1,7,-1
 152 53 l 1,8,-1
 169 43 l 1,9,-1
 486 43 l 1,10,-1
 575 85 l 1,11,-1
 604 128 l 1,12,-1
 625 128 l 1,13,-1
 595 0 l 1,14,-1
 0 0 l 1,0,-1
EndSplineSet
EndChar

StartChar: bracketleft
Encoding: 91 91 62
Width: 304
Flags: W
LayerCount: 2
Fore
SplineSet
-10 -43 m 1,0,-1
 177 768 l 1,1,-1
 415 768 l 1,2,-1
 405 725 l 1,3,-1
 207 725 l 1,4,-1
 40 0 l 1,5,-1
 238 0 l 1,6,-1
 228 -43 l 1,7,-1
 -10 -43 l 1,0,-1
EndSplineSet
EndChar

StartChar: backslash
Encoding: 92 92 63
Width: 463
Flags: W
LayerCount: 2
Fore
SplineSet
357 0 m 1,0,-1
 187 725 l 1,1,-1
 226 725 l 1,2,-1
 397 0 l 1,3,-1
 357 0 l 1,0,-1
EndSplineSet
EndChar

StartChar: bracketright
Encoding: 93 93 64
Width: 304
Flags: W
LayerCount: 2
Fore
SplineSet
-10 -43 m 1,0,-1
 0 0 l 1,1,-1
 198 0 l 1,2,-1
 365 725 l 1,3,-1
 167 725 l 1,4,-1
 177 768 l 1,5,-1
 415 768 l 1,6,-1
 228 -43 l 1,7,-1
 -10 -43 l 1,0,-1
EndSplineSet
EndChar

StartChar: asciicircum
Encoding: 94 94 65
Width: 463
Flags: W
LayerCount: 2
Fore
SplineSet
104 449 m 1,0,-1
 118 512 l 1,1,-1
 365 725 l 1,2,-1
 515 512 l 1,3,-1
 501 449 l 1,4,-1
 351 662 l 1,5,-1
 104 449 l 1,0,-1
EndSplineSet
EndChar

StartChar: underscore
Encoding: 95 95 66
Width: 423
Flags: W
LayerCount: 2
Fore
SplineSet
-10 -43 m 1,0,-1
 0 0 l 1,1,-1
 357 0 l 1,2,-1
 347 -43 l 1,3,-1
 -10 -43 l 1,0,-1
EndSplineSet
EndChar

StartChar: grave
Encoding: 96 96 67
Width: 304
Flags: W
LayerCount: 2
Fore
SplineSet
306 469 m 1,0,-1
 133 575 l 1,1,-1
 143 618 l 1,2,-1
 188 640 l 1,3,-1
 220 611 l 1,4,-1
 353 498 l 1,5,-1
 346 469 l 1,6,-1
 306 469 l 1,0,-1
EndSplineSet
EndChar

StartChar: a
Encoding: 97 97 68
Width: 499
Flags: W
LayerCount: 2
Fore
SplineSet
186 43 m 2,0,-1
 310 106 l 1,1,-1
 359 319 l 1,2,-1
 265 384 l 2,3,4
 250 384 250 384 229 384 c 0,5,6
 214 380 214 380 187 362 c 0,7,8
 174 354 174 354 163 341 c 0,9,10
 139 311 139 311 136 299 c 0,11,12
 116 214 116 214 96 128 c 0,13,14
 94 115 94 115 104 85 c 0,15,16
 108 72 108 72 118 63 c 0,17,18
 137 46 137 46 150 43 c 0,19,20
 171 43 171 43 186 43 c 2,0,-1
103 0 m 0,21,22
 57 14 57 14 41 43 c 0,23,24
 20 77 20 77 24 128 c 0,25,26
 44 213 44 213 63 299 c 0,27,28
 82 350 82 350 119 384 c 0,29,30
 150 413 150 413 202 427 c 0,31,32
 241 427 241 427 275 427 c 1,33,-1
 369 362 l 1,34,-1
 380 407 l 0,35,-1
 460 427 l 0,36,-1
 376 63 l 1,37,-1
 440 22 l 1,38,-1
 435 0 l 1,39,-1
 286 0 l 1,40,-1
 300 63 l 1,41,-1
 176 0 l 1,42,43
 142 0 142 0 103 0 c 0,21,22
EndSplineSet
EndChar

StartChar: b
Encoding: 98 98 69
Width: 499
Flags: W
LayerCount: 2
Fore
SplineSet
304 43 m 0,0,1
 319 47 319 47 346 63 c 0,2,3
 359 71 359 71 370 85 c 0,4,5
 394 115 394 115 398 128 c 0,6,7
 418 213 418 213 437 299 c 0,8,9
 439 311 439 311 429 341 c 0,10,11
 425 353 425 353 415 362 c 0,12,13
 397 379 397 379 383 384 c 0,14,15
 361 384 361 384 347 384 c 0,16,17
 226 336 226 336 223 319 c 0,18,19
 199 214 199 214 174 106 c 0,20,21
 170 90 170 90 269 43 c 0,22,23
 282 43 282 43 304 43 c 0,0,1
73 0 m 1,24,-1
 226 662 l 1,25,-1
 163 705 l 1,26,-1
 167 725 l 1,27,-1
 317 725 l 1,28,-1
 233 362 l 1,29,30
 230 385 230 385 357 427 c 0,31,32
 390 427 390 427 430 427 c 0,33,34
 476 413 476 413 493 384 c 0,35,36
 514 350 514 350 510 299 c 0,37,38
 490 214 490 214 470 128 c 0,39,40
 451 77 451 77 414 43 c 0,41,42
 383 14 383 14 331 0 c 0,43,44
 291 0 291 0 259 0 c 1,45,-1
 164 63 l 1,46,-1
 91 0 l 1,47,-1
 73 0 l 1,24,-1
EndSplineSet
EndChar

StartChar: c
Encoding: 99 99 70
Width: 426
Flags: W
LayerCount: 2
Fore
SplineSet
142 0 m 0,0,1
 117 6 117 6 78 40 c 0,2,3
 59 55 59 55 51 80 c 0,4,5
 33 129 33 129 33 162 c 0,6,7
 42 203 42 203 52 243 c 0,8,9
 66 275 66 275 107 324 c 0,10,11
 126 349 126 349 153 365 c 0,12,13
 207 400 207 400 236 406 c 0,14,15
 290 406 290 406 345 406 c 0,16,17
 388 395 388 395 408 363 c 0,18,19
 404 346 404 346 398 320 c 0,20,21
 381 298 381 298 356 298 c 0,22,23
 337 298 337 298 325 320 c 1,24,-1
 317 363 l 1,25,26
 275 363 275 363 226 363 c 0,27,28
 210 358 210 358 179 322 c 0,29,30
 138 274 138 274 124 241 c 0,31,32
 115 200 115 200 106 161 c 0,33,34
 105 129 105 129 123 79 c 0,35,36
 137 42 137 42 151 40 c 0,37,38
 205 40 205 40 260 40 c 1,39,-1
 384 99 l 1,40,-1
 374 58 l 1,41,-1
 251 0 l 1,42,43
 204 0 204 0 142 0 c 0,0,1
EndSplineSet
EndChar

StartChar: d
Encoding: 100 100 71
Width: 499
Flags: W
LayerCount: 2
Fore
SplineSet
186 43 m 2,0,-1
 310 106 l 1,1,-1
 359 319 l 1,2,-1
 265 384 l 2,3,4
 250 384 250 384 229 384 c 0,5,6
 214 380 214 380 187 362 c 0,7,8
 174 354 174 354 163 341 c 0,9,10
 139 311 139 311 136 299 c 0,11,12
 116 214 116 214 96 128 c 0,13,14
 94 115 94 115 104 85 c 0,15,16
 108 72 108 72 118 63 c 0,17,18
 137 46 137 46 150 43 c 0,19,20
 171 43 171 43 186 43 c 2,0,-1
103 0 m 0,21,22
 57 14 57 14 41 43 c 0,23,24
 20 77 20 77 24 128 c 0,25,26
 44 213 44 213 63 299 c 0,27,28
 82 350 82 350 119 384 c 0,29,30
 150 413 150 413 202 427 c 0,31,32
 241 427 241 427 275 427 c 1,33,-1
 369 362 l 1,34,-1
 438 662 l 1,35,-1
 376 705 l 1,36,-1
 380 725 l 1,37,-1
 529 725 l 1,38,-1
 376 63 l 1,39,-1
 440 22 l 1,40,-1
 435 0 l 1,41,-1
 286 0 l 1,42,-1
 300 63 l 1,43,-1
 176 0 l 1,44,45
 142 0 142 0 103 0 c 0,21,22
EndSplineSet
EndChar

StartChar: e
Encoding: 101 101 72
Width: 426
Flags: W
LayerCount: 2
Fore
SplineSet
346 256 m 1,0,-1
 340 326 l 1,1,2
 324 374 324 374 303 384 c 0,3,4
 267 384 267 384 231 384 c 0,5,6
 207 375 207 375 169 328 c 1,7,-1
 127 256 l 1,8,-1
 346 256 l 1,0,-1
142 0 m 0,9,10
 117 6 117 6 78 43 c 0,11,12
 59 59 59 59 52 85 c 0,13,14
 35 136 35 136 35 171 c 0,15,16
 45 214 45 214 55 256 c 0,17,18
 70 290 70 290 111 341 c 0,19,20
 131 367 131 367 157 384 c 0,21,22
 208 418 208 418 240 427 c 0,23,24
 277 427 277 427 313 427 c 0,25,26
 340 419 340 419 376 384 c 0,27,28
 395 368 395 368 403 341 c 0,29,30
 418 298 418 298 420 256 c 1,31,-1
 410 213 l 1,32,-1
 118 213 l 1,33,-1
 108 171 l 1,34,35
 110 129 110 129 125 85 c 0,36,37
 138 46 138 46 152 43 c 0,38,39
 206 43 206 43 261 43 c 1,40,-1
 385 106 l 1,41,-1
 375 63 l 1,42,-1
 251 0 l 1,43,44
 204 0 204 0 142 0 c 0,9,10
EndSplineSet
EndChar

StartChar: f
Encoding: 102 102 73
Width: 364
Flags: W
LayerCount: 2
Fore
SplineSet
119 -131 m 1,0,1
 107 -158 107 -158 32 -255 c 0,2,3
 23 -268 23 -268 9 -276 c 1,4,-1
 156 363 l 1,5,-1
 84 363 l 1,6,-1
 94 406 l 1,7,-1
 166 406 l 1,8,-1
 199 548 l 1,9,10
 212 577 212 577 288 681 c 0,11,12
 297 695 297 695 312 704 c 0,13,14
 337 721 337 721 353 725 c 0,15,16
 373 725 373 725 391 725 c 0,17,18
 422 717 422 717 424 705 c 0,19,20
 417 673 417 673 409 640 c 0,21,22
 395 618 395 618 366 618 c 0,23,24
 346 618 346 618 333 640 c 1,25,-1
 338 662 l 1,26,27
 333 662 333 662 315 638 c 0,28,29
 290 604 290 604 286 591 c 2,30,-1
 243 406 l 1,31,-1
 391 406 l 1,32,-1
 381 363 l 1,33,-1
 233 363 l 1,34,-1
 119 -131 l 1,0,1
EndSplineSet
EndChar

StartChar: g
Encoding: 103 103 74
Width: 464
Flags: W
LayerCount: 2
Fore
SplineSet
244 115 m 0,0,1
 256 117 256 117 286 136 c 0,2,3
 298 144 298 144 308 156 c 0,4,5
 330 184 330 184 336 197 c 0,6,7
 346 239 346 239 355 280 c 0,8,9
 356 294 356 294 346 321 c 0,10,11
 342 333 342 333 334 341 c 0,12,13
 313 359 313 359 302 363 c 0,14,15
 265 363 265 363 229 363 c 0,16,17
 217 361 217 361 187 341 c 0,18,19
 174 333 174 333 164 321 c 0,20,21
 142 293 142 293 136 280 c 0,22,23
 126 238 126 238 117 197 c 0,24,25
 116 183 116 183 126 156 c 0,26,27
 130 144 130 144 140 136 c 0,28,29
 161 119 161 119 172 115 c 0,30,31
 207 115 207 115 244 115 c 0,0,1
2 -299 m 0,32,33
 -8 -298 -8 -298 -30 -279 c 0,34,35
 -40 -271 -40 -271 -44 -257 c 0,36,37
 -54 -230 -54 -230 -54 -216 c 0,38,39
 -44 -171 -44 -171 -40 -155 c 0,40,41
 -35 -147 -35 -147 3 -133 c 0,42,43
 14 -133 14 -133 21 -133 c 0,44,45
 35 -142 35 -142 36 -155 c 1,46,-1
 22 -216 l 1,47,48
 20 -254 20 -254 30 -257 c 0,49,50
 69 -257 69 -257 159 -257 c 0,51,52
 169 -256 169 -256 200 -236 c 0,53,54
 212 -228 212 -228 222 -216 c 0,55,56
 244 -188 244 -188 250 -175 c 0,57,58
 260 -133 260 -133 269 -92 c 0,59,60
 270 -78 270 -78 260 -51 c 0,61,62
 253 -32 253 -32 248 -31 c 0,63,64
 178 -31 178 -31 138 -31 c 1,65,-1
 13 -92 l 1,66,-1
 -25 -92 l 1,67,-1
 100 89 l 1,68,-1
 93 93 l 1,69,70
 58 141 58 141 52 157 c 0,71,72
 42 179 42 179 42 197 c 0,73,74
 52 239 52 239 61 281 c 0,75,76
 68 300 68 300 90 322 c 0,77,78
 124 357 124 357 160 385 c 0,79,80
 186 403 186 403 202 406 c 0,81,82
 275 406 275 406 348 406 c 1,83,-1
 379 385 l 1,84,-1
 426 428 l 1,85,86
 441 428 441 428 463 428 c 0,87,88
 473 424 473 424 477 406 c 0,89,90
 474 395 474 395 472 385 c 0,91,92
 461 368 461 368 448 363 c 1,93,-1
 411 363 l 2,94,95
 398 360 398 360 400 353 c 2,96,-1
 420 321 l 1,97,98
 430 296 430 296 429 280 c 0,99,100
 419 238 419 238 410 197 c 0,101,102
 403 178 403 178 382 156 c 0,103,104
 349 121 349 121 312 93 c 0,105,106
 286 75 286 75 272 73 c 2,107,-1
 125 73 l 1,108,109
 91 23 91 23 50 -38 c 1,110,-1
 148 12 l 1,111,112
 200 12 200 12 257 12 c 0,113,114
 275 8 275 8 320 -31 c 0,115,116
 329 -38 329 -38 334 -51 c 0,117,118
 343 -79 343 -79 343 -92 c 0,119,120
 333 -134 333 -134 324 -175 c 0,121,122
 317 -194 317 -194 296 -216 c 0,123,124
 263 -251 263 -251 226 -279 c 0,125,126
 200 -297 200 -297 186 -299 c 0,127,128
 93 -299 93 -299 2 -299 c 0,32,33
EndSplineSet
EndChar

StartChar: h
Encoding: 104 104 75
Width: 581
Flags: W
LayerCount: 2
Fore
SplineSet
149 0 m 1,0,-1
 73 0 l 1,1,-1
 225 657 l 1,2,-1
 162 704 l 1,3,-1
 167 725 l 1,4,-1
 317 725 l 1,5,-1
 228 342 l 1,6,-1
 352 406 l 1,7,-1
 425 406 l 1,8,-1
 489 363 l 1,9,-1
 509 283 l 1,10,-1
 468 105 l 1,11,12
 459 66 459 66 456 47 c 0,13,14
 456 34 456 34 472 34 c 0,15,16
 489 34 489 34 508 57 c 2,17,-1
 545 103 l 1,18,-1
 557 93 l 1,19,20
 520 36 520 36 491 13 c 128,-1,21
 462 -10 462 -10 430 -10 c 0,22,23
 366 -10 366 -10 394 112 c 1,24,-1
 434 283 l 1,25,-1
 425 322 l 1,26,-1
 410 342 l 1,27,-1
 378 363 l 1,28,-1
 342 363 l 1,29,-1
 219 302 l 1,30,-1
 149 0 l 1,0,-1
EndSplineSet
EndChar

StartChar: i
Encoding: 105 105 76
Width: 285
Flags: W
LayerCount: 2
Fore
SplineSet
172 106 m 1,0,1
 162 64 162 64 160 47 c 0,2,3
 160 34 160 34 176 34 c 0,4,5
 193 34 193 34 213 58 c 2,6,-1
 250 104 l 1,7,-1
 262 94 l 1,8,9
 224 36 224 36 196.5 13 c 128,-1,10
 169 -10 169 -10 135 -10 c 0,11,12
 70 -10 70 -10 98 112 c 1,13,-1
 142 300 l 1,14,15
 152 341 152 341 154 358 c 0,16,17
 154 371 154 371 138 372 c 0,18,19
 121 372 121 372 101 347 c 2,20,-1
 65 302 l 1,21,-1
 53 311 l 1,22,23
 91 369 91 369 118.5 392.5 c 128,-1,24
 146 416 146 416 179 416 c 0,25,26
 244 416 244 416 216 295 c 0,27,-1
 172 106 l 1,0,1
239 555 m 128,-1,29
 224 555 224 555 214 567 c 0,30,31
 206 579 206 579 210 597 c 0,32,33
 214 614 214 614 228 628 c 0,34,35
 241 640 241 640 259 640 c 0,36,37
 274 640 274 640 282 627.5 c 128,-1,38
 290 615 290 615 287 597 c 0,39,40
 283 580 283 580 268 567 c 0,41,28
 254 555 254 555 239 555 c 128,-1,29
EndSplineSet
EndChar

StartChar: j
Encoding: 106 106 77
Width: 246
Flags: W
LayerCount: 2
Fore
SplineSet
-9 -171 m 0,0,1
 -40 -162 -40 -162 -42 -150 c 0,2,3
 -35 -118 -35 -118 -27 -85 c 0,4,5
 -13 -63 -13 -63 16 -63 c 0,6,7
 36 -63 36 -63 49 -85 c 1,8,-1
 44 -106 l 1,9,10
 50 -106 50 -106 67 -86 c 0,11,12
 93 -55 93 -55 95 -46 c 2,13,-1
 175 299 l 1,14,15
 184 339 184 339 187 358 c 0,16,17
 187 371 187 371 171 372 c 0,18,19
 153 372 153 372 134 348 c 2,20,-1
 96 301 l 1,21,-1
 83 312 l 1,22,23
 121 369 121 369 150 392.5 c 128,-1,24
 179 416 179 416 211 416 c 0,25,26
 276 416 276 416 248 293 c 1,27,-1
 179 -6 l 2,28,29
 173 -24 173 -24 95 -130 c 0,30,31
 87 -141 87 -141 71 -151 c 0,32,33
 45 -167 45 -167 29 -171 c 0,34,35
 11 -171 11 -171 -9 -171 c 0,0,1
272 555 m 1,36,37
 257 555 257 555 248 567 c 0,38,39
 239 579 239 579 243 597 c 0,40,41
 247 614 247 614 261 628 c 0,42,43
 274 640 274 640 291 640 c 0,44,45
 306 640 306 640 315 628 c 0,46,47
 323 616 323 616 319 597 c 0,48,49
 315 580 315 580 301 567 c 0,50,51
 288 555 288 555 272 555 c 1,36,37
EndSplineSet
EndChar

StartChar: k
Encoding: 107 107 78
Width: 504
Flags: W
LayerCount: 2
Fore
SplineSet
149 0 m 1,0,-1
 73 0 l 1,1,-1
 226 662 l 1,2,-1
 163 705 l 1,3,-1
 167 725 l 1,4,-1
 317 725 l 1,5,-1
 203 234 l 1,6,-1
 373 391 l 1,7,-1
 352 406 l 1,8,-1
 357 427 l 1,9,-1
 467 427 l 1,10,-1
 462 406 l 1,11,-1
 420 384 l 1,12,-1
 270 246 l 1,13,-1
 397 42 l 1,14,15
 398 41 398 41 399 38.5 c 128,-1,16
 400 36 400 36 401 34.5 c 128,-1,17
 402 33 402 33 403.5 31.5 c 128,-1,18
 405 30 405 30 415 30 c 0,19,20
 425 30 425 30 439 50 c 2,21,-1
 480 104 l 1,22,-1
 490 94 l 1,23,24
 455 37 455 37 427.5 13 c 128,-1,25
 400 -11 400 -11 371 -11 c 0,26,27
 339 -11 339 -11 333 -2 c 1,28,-1
 198 213 l 1,29,-1
 149 0 l 1,0,-1
EndSplineSet
EndChar

StartChar: l
Encoding: 108 108 79
Width: 286
Flags: W
LayerCount: 2
Fore
SplineSet
175 110 m 1,0,1
 165 66 165 66 162 48 c 0,2,3
 162 34 162 34 178 34 c 0,4,5
 195 34 195 34 214 60 c 2,6,-1
 251 108 l 1,7,-1
 263 98 l 1,8,9
 225 38 225 38 197 14 c 128,-1,10
 169 -10 169 -10 136 -10 c 0,11,12
 71 -10 71 -10 100 117 c 1,13,-1
 226 662 l 1,14,-1
 163 705 l 1,15,-1
 167 725 l 1,16,-1
 317 725 l 1,17,-1
 175 110 l 1,0,1
EndSplineSet
EndChar

StartChar: m
Encoding: 109 109 80
Width: 802
Flags: W
LayerCount: 2
Fore
SplineSet
149 0 m 1,0,-1
 72 0 l 1,1,-1
 142 300 l 1,2,3
 152 342 152 342 154 358 c 0,4,5
 154 371 154 371 138 372 c 0,6,7
 121 372 121 372 101 347 c 2,8,-1
 65 302 l 1,9,-1
 53 311 l 1,10,11
 91 369 91 369 119 392.5 c 128,-1,12
 147 416 147 416 180 416 c 0,13,14
 230 416 230 416 233 363 c 1,15,-1
 315 406 l 1,16,17
 352 406 352 406 389 406 c 0,18,19
 390 406 390 406 453 363 c 1,20,21
 468 342 l 1,22,-1
 491 363 l 1,23,24
 551 400 551 400 575 406 c 0,25,26
 612 406 612 406 648 406 c 0,27,28
 694 392 694 392 712 363 c 0,29,30
 735 329 735 329 731 283 c 1,31,-1
 690 105 l 1,32,33
 681 65 681 65 678 47 c 0,34,35
 678 34 678 34 694 34 c 0,36,37
 711 34 711 34 730 58 c 2,38,-1
 766 104 l 1,39,-1
 778 93 l 1,40,41
 741 36 741 36 712.5 13 c 128,-1,42
 684 -10 684 -10 652 -10 c 0,43,44
 588 -10 588 -10 616 112 c 1,45,-1
 655 283 l 2,46,47
 657 294 657 294 647 323 c 0,48,49
 643 334 643 334 632 342 c 0,50,51
 613 358 613 358 598 363 c 0,52,53
 581 363 581 363 564 363 c 0,54,55
 549 359 549 359 523 342 c 0,56,57
 510 334 510 334 499 323 c 0,58,59
 475 294 475 294 472 283 c 2,60,-1
 407 0 l 1,61,-1
 331 0 l 1,62,-1
 397 283 l 2,63,64
 399 294 399 294 387 323 c 0,65,66
 383 334 383 334 374 342 c 0,67,68
 355 358 355 358 342 363 c 0,69,70
 321 363 321 363 306 363 c 0,71,72
 232 337 232 337 224 323 c 1,73,-1
 149 0 l 1,0,-1
EndSplineSet
EndChar

StartChar: n
Encoding: 110 110 81
Width: 543
Flags: W
LayerCount: 2
Fore
SplineSet
149 0 m 1,0,-1
 72 0 l 1,1,-1
 142 300 l 1,2,3
 152 342 152 342 154 358 c 0,4,5
 154 371 154 371 138 372 c 0,6,7
 121 372 121 372 101 347 c 2,8,-1
 65 302 l 1,9,-1
 53 311 l 1,10,11
 91 369 91 369 119 392.5 c 128,-1,12
 147 416 147 416 180 416 c 0,13,14
 230 416 230 416 233 363 c 1,15,-1
 315 406 l 1,16,17
 352 406 352 406 389 406 c 0,18,19
 435 393 435 393 454 365 c 0,20,21
 477 331 477 331 472 283 c 1,22,-1
 431 105 l 1,23,24
 422 65 422 65 419 47 c 0,25,26
 419 34 419 34 435 34 c 0,27,28
 452 34 452 34 471 58 c 2,29,-1
 508 104 l 1,30,-1
 520 93 l 1,31,32
 483 36 483 36 454 13 c 128,-1,33
 425 -10 425 -10 393 -10 c 0,34,35
 329 -10 329 -10 357 112 c 1,36,-1
 397 283 l 2,37,38
 399 294 399 294 387 323 c 0,39,40
 383 334 383 334 374 342 c 0,41,42
 355 358 355 358 342 363 c 0,43,44
 321 363 321 363 306 363 c 0,45,46
 232 337 232 337 224 323 c 1,47,-1
 149 0 l 1,0,-1
EndSplineSet
EndChar

StartChar: o
Encoding: 111 111 82
Width: 458
Flags: W
LayerCount: 2
Fore
SplineSet
261 43 m 0,0,1
 276 47 276 47 307 85 c 0,2,3
 348 136 348 136 363 171 c 0,4,5
 373 214 373 214 383 256 c 0,6,7
 384 290 384 290 366 341 c 0,8,9
 353 380 353 380 340 384 c 0,10,11
 284 384 284 384 231 384 c 0,12,13
 216 380 216 380 184 341 c 0,14,15
 142 290 142 290 127 256 c 0,16,17
 117 213 117 213 108 171 c 0,18,19
 107 137 107 137 125 85 c 0,20,21
 138 46 138 46 152 43 c 0,22,23
 207 43 207 43 261 43 c 0,0,1
142 0 m 0,24,25
 117 6 117 6 78 43 c 0,26,27
 59 59 59 59 52 85 c 0,28,29
 35 136 35 136 35 171 c 0,30,31
 45 214 45 214 55 256 c 0,32,33
 70 290 70 290 111 341 c 0,34,35
 131 367 131 367 157 384 c 0,36,37
 212 421 212 421 240 427 c 0,38,39
 294 427 294 427 350 427 c 0,40,41
 375 421 375 421 413 384 c 0,42,43
 432 368 432 368 439 341 c 0,44,45
 457 290 457 290 456 256 c 0,46,47
 446 213 446 213 436 171 c 0,48,49
 421 137 421 137 380 85 c 0,50,51
 359 59 359 59 334 43 c 0,52,53
 279 6 279 6 251 0 c 0,54,55
 196 0 196 0 142 0 c 0,24,25
EndSplineSet
EndChar

StartChar: p
Encoding: 112 112 83
Width: 498
Flags: W
LayerCount: 2
Fore
SplineSet
302 32 m 0,0,1
 317 36 317 36 343 52 c 0,2,3
 356 60 356 60 367 73 c 0,4,5
 391 102 391 102 394 115 c 0,6,7
 413 197 413 197 433 281 c 0,8,9
 435 293 435 293 424 321 c 0,10,11
 420 333 420 333 410 342 c 0,12,13
 392 358 392 358 378 363 c 0,14,15
 356 363 356 363 342 363 c 0,16,17
 222 316 222 316 218 300 c 0,18,19
 193 191 193 191 171 94 c 0,20,21
 167 78 167 78 266 32 c 0,22,23
 280 32 280 32 302 32 c 0,0,1
3 -299 m 1,24,-1
 141 298 l 1,25,26
 151 341 151 341 153 358 c 0,27,28
 153 372 153 372 138 372 c 0,29,30
 121 372 121 372 101 346 c 2,31,-1
 65 300 l 1,32,-1
 52 310 l 1,33,34
 90 369 90 369 118.5 392.5 c 128,-1,35
 147 416 147 416 180 416 c 0,36,37
 234 416 234 416 228 342 c 1,38,-1
 352 406 l 1,39,40
 385 406 385 406 425 406 c 0,41,42
 471 392 471 392 488 364 c 0,43,44
 510 331 510 331 506 281 c 0,45,46
 487 198 487 198 467 115 c 0,47,48
 449 65 449 65 411 33 c 0,49,50
 380 5 380 5 329 -9 c 0,51,52
 289 -9 289 -9 256 -9 c 1,53,-1
 161 52 l 1,54,-1
 80 -299 l 1,55,-1
 3 -299 l 1,24,-1
EndSplineSet
EndChar

StartChar: q
Encoding: 113 113 84
Width: 427
Flags: W
LayerCount: 2
Fore
SplineSet
186 43 m 0,0,1
 305 90 305 90 310 106 c 0,2,3
 332 202 332 202 359 319 c 0,4,5
 362 335 362 335 265 384 c 0,6,7
 250 384 250 384 229 384 c 0,8,9
 214 380 214 380 187 362 c 0,10,11
 174 354 174 354 163 341 c 0,12,13
 139 311 139 311 136 299 c 0,14,15
 116 214 116 214 96 128 c 0,16,17
 94 115 94 115 104 85 c 0,18,19
 108 72 108 72 118 63 c 0,20,21
 137 46 137 46 150 43 c 0,22,23
 171 43 171 43 186 43 c 0,0,1
293 -299 m 1,24,-1
 216 -299 l 1,25,-1
 300 63 l 1,26,-1
 176 0 l 1,27,28
 143 0 143 0 103 0 c 0,29,30
 57 14 57 14 41 43 c 0,31,32
 20 77 20 77 24 128 c 0,33,34
 44 213 44 213 63 299 c 0,35,36
 82 350 82 350 119 384 c 0,37,38
 150 413 150 413 202 427 c 0,39,40
 241 427 241 427 275 427 c 1,41,-1
 369 362 l 1,42,-1
 442 427 l 1,43,-1
 460 427 l 1,44,-1
 293 -299 l 1,24,-1
EndSplineSet
EndChar

StartChar: r
Encoding: 114 114 85
Width: 393
Flags: W
LayerCount: 2
Fore
SplineSet
149 0 m 1,0,-1
 72 0 l 1,1,-1
 142 300 l 1,2,3
 152 342 152 342 154 358 c 0,4,5
 154 371 154 371 138 372 c 0,6,7
 121 372 121 372 101 347 c 2,8,-1
 65 302 l 1,9,-1
 53 311 l 1,10,11
 91 369 91 369 119 392.5 c 128,-1,12
 147 416 147 416 180 416 c 0,13,14
 245 416 245 416 217 293 c 1,15,-1
 214 283 l 1,16,17
 231 329 231 329 269 363 c 0,18,19
 293 385 293 385 352 406 c 0,20,21
 377 406 377 406 388 406 c 0,22,23
 396 398 396 398 396 363 c 0,24,25
 389 334 389 334 387 322 c 0,26,27
 364 292 364 292 349 302 c 0,28,29
 336 311 336 311 324 320 c 1,30,-1
 313 347 l 1,31,32
 294 346 294 346 277 322 c 0,33,34
 210 235 210 235 196 201 c 1,35,-1
 149 0 l 1,0,-1
EndSplineSet
EndChar

StartChar: s
Encoding: 115 115 86
Width: 305
Flags: W
LayerCount: 2
Fore
SplineSet
65 0 m 0,0,1
 22 11 22 11 3 43 c 0,2,3
 7 60 7 60 12 85 c 0,4,5
 29 107 29 107 54 106 c 0,6,7
 71 106 71 106 85 85 c 1,8,-1
 93 43 l 1,9,10
 114 43 114 43 185 43 c 0,11,12
 200 45 200 45 212 56 c 0,13,14
 223 66 223 66 231 85 c 0,15,16
 239 120 239 120 241 128 c 0,17,18
 226 157 226 157 185 173 c 1,19,-1
 125 186 l 1,20,21
 92 199 92 199 79 213 c 0,22,23
 53 238 53 238 52 256 c 0,24,25
 59 285 59 285 71 341 c 0,26,27
 76 355 76 355 100 384 c 0,28,29
 110 397 110 397 123 406 c 0,30,31
 154 426 154 426 164 427 c 0,32,33
 231 427 231 427 273 427 c 0,34,35
 317 416 317 416 337 384 c 0,36,37
 333 367 333 367 327 341 c 0,38,39
 310 319 310 319 285 319 c 0,40,41
 266 319 266 319 253 341 c 1,42,-1
 246 384 l 1,43,44
 223 384 223 384 154 384 c 0,45,46
 139 382 139 382 126 370 c 0,47,48
 115 360 115 360 108 341 c 0,49,50
 100 306 100 306 98 299 c 0,51,52
 108 281 108 281 152 263 c 1,53,-1
 211 250 l 1,54,55
 234 240 234 240 260.5 213 c 128,-1,56
 287 186 287 186 288 171 c 0,57,58
 281 141 281 141 268 85 c 0,59,60
 263 72 263 72 240 43 c 0,61,62
 229 30 229 30 217 22 c 0,63,64
 187 2 187 2 175 0 c 0,65,66
 107 0 107 0 65 0 c 0,0,1
EndSplineSet
EndChar

StartChar: t
Encoding: 116 116 87
Width: 287
Flags: W
LayerCount: 2
Fore
SplineSet
110 0 m 1,0,1
 37 0 l 1,2,-1
 121 363 l 1,3,-1
 84 363 l 1,4,-1
 94 406 l 1,5,-1
 130 406 l 1,6,-1
 153 505 l 1,7,-1
 241 555 l 1,8,-1
 206 406 l 1,9,-1
 316 406 l 1,10,-1
 306 363 l 1,11,-1
 196 363 l 1,12,-1
 131 82 l 1,13,-1
 137 55 l 1,14,15
 146 42 146 42 158 42.5 c 128,-1,16
 170 43 170 43 186 55 c 1,17,-1
 204 82 l 1,18,-1
 241 82 l 1,19,-1
 212 42 l 2,20,21
 202 29 202 29 189 21 c 0,22,23
 163 5 163 5 148 0 c 0,24,25
 129 0 129 0 110 0 c 1,0,1
EndSplineSet
EndChar

StartChar: u
Encoding: 117 117 88
Width: 544
Flags: W
LayerCount: 2
Fore
SplineSet
184 0 m 0,0,1
 138 13 138 13 119 40 c 0,2,3
 96 74 96 74 100 121 c 1,4,-1
 142 300 l 1,5,6
 152 342 152 342 154 358 c 0,7,8
 154 371 154 371 138 372 c 0,9,10
 121 372 121 372 101 347 c 2,11,-1
 65 302 l 1,12,-1
 53 311 l 1,13,14
 91 369 91 369 119 392.5 c 128,-1,15
 147 416 147 416 180 416 c 0,16,17
 245 416 245 416 217 293 c 1,18,-1
 177 121 l 2,19,20
 175 111 175 111 186 80 c 0,21,22
 190 68 190 68 199 59 c 0,23,24
 218 43 218 43 231 40 c 0,25,26
 252 40 252 40 268 40 c 0,27,28
 343 66 343 66 350 80 c 1,29,-1
 425 406 l 1,30,-1
 500 406 l 1,31,-1
 420 59 l 1,32,-1
 485 21 l 1,33,-1
 480 0 l 1,34,-1
 331 0 l 1,35,-1
 341 40 l 1,36,-1
 258 0 l 1,37,38
 221 0 221 0 184 0 c 0,0,1
EndSplineSet
EndChar

StartChar: v
Encoding: 118 118 89
Width: 534
Flags: W
LayerCount: 2
Fore
SplineSet
200 0 m 1,0,-1
 120 363 l 1,1,-1
 122 354 l 0,2,3
 119 368 119 368 109 368 c 0,4,5
 91 368 91 368 68 338 c 2,6,-1
 36 296 l 1,7,-1
 21 305 l 1,8,9
 60 366 60 366 89.5 391 c 128,-1,10
 119 416 119 416 154 416 c 0,11,12
 201 416 201 416 208 381 c 0,13,-1
 213 356 l 1,14,-1
 269 100 l 1,15,-1
 437 347 l 1,16,-1
 451 368 l 0,17,18
 471 398 471 398 488 408 c 128,-1,19
 505 418 505 418 531 418 c 0,20,21
 556 418 556 418 571.5 403.5 c 128,-1,22
 587 389 587 389 587 365 c 0,23,24
 587 344 587 344 574.5 330 c 128,-1,25
 562 316 562 316 543 316 c 0,26,27
 530 316 530 316 508 327 c 0,28,29
 498 334 498 334 489 334 c 0,30,31
 484 334 484 334 481 331.5 c 128,-1,32
 478 329 478 329 473.5 320.5 c 128,-1,33
 469 312 469 312 465 307 c 0,34,-1
 493 349 l 1,35,-1
 255 0 l 1,36,-1
 200 0 l 1,0,-1
EndSplineSet
EndChar

StartChar: w
Encoding: 119 119 90
Width: 683
Flags: W
LayerCount: 2
Fore
SplineSet
170 0 m 1,0,-1
 146 347 l 1,1,-1
 145 359 l 0,2,3
 145 373 145 373 132 374 c 0,4,5
 115 374 115 374 97 352 c 2,6,-1
 59 303 l 1,7,-1
 48 312 l 1,8,9
 84 370 84 370 112 393.5 c 128,-1,10
 140 417 140 417 170 417 c 0,11,12
 214 417 214 417 218 372 c 0,13,-1
 219 359 l 1,14,-1
 237 80 l 1,15,-1
 410 406 l 1,16,-1
 434 406 l 1,17,-1
 456 80 l 1,18,-1
 603 357 l 1,19,-1
 584 322 l 0,20,21
 587 326 587 326 593 333 c 128,-1,22
 599 340 599 340 601 343 c 0,23,24
 634 390 634 390 649.5 403.5 c 128,-1,25
 665 417 665 417 688 417 c 0,26,27
 709 417 709 417 721.5 405 c 128,-1,28
 734 393 734 393 735 374 c 0,29,30
 736 358 736 358 726 348 c 128,-1,31
 716 338 716 338 703 338 c 0,32,33
 690 338 690 338 672 347 c 0,34,35
 660 355 660 355 650 355 c 0,36,37
 635 355 635 355 616 326 c 0,38,39
 614 323 614 323 615 318.5 c 128,-1,40
 616 314 616 314 616 312 c 0,41,-1
 634 346 l 1,42,-1
 449 0 l 1,43,-1
 389 0 l 1,44,-1
 372 241 l 1,45,-1
 370 262 l 1,46,-1
 231 0 l 1,47,-1
 170 0 l 1,0,-1
EndSplineSet
EndChar

StartChar: x
Encoding: 120 120 91
Width: 464
Flags: W
LayerCount: 2
Fore
SplineSet
109 16 m 1,0,1
 86 -12 86 -12 46 -12 c 0,2,3
 22 -12 22 -12 6.5 3 c 128,-1,4
 -9 18 -9 18 -11 41 c 0,5,6
 -11 62 -11 62 2.5 76.5 c 128,-1,7
 16 91 16 91 34 91 c 0,8,9
 48 91 48 91 69 80 c 0,10,11
 80 73 80 73 88 73 c 0,12,13
 95 73 95 73 109 89 c 1,14,-1
 196 193 l 1,15,-1
 131 363 l 1,16,-1
 132 360 l 0,17,18
 127 373 127 373 121 373 c 0,19,20
 103 373 103 373 86 350 c 2,21,-1
 49 302 l 1,22,-1
 36 311 l 1,23,24
 72 368 72 368 100 392 c 0,25,26
 128 417 128 417 160 417 c 0,27,28
 198 417 198 417 205 396 c 0,29,-1
 216 365 l 1,30,-1
 245 283 l 1,31,-1
 256 251 l 1,32,-1
 353 370 l 1,33,-1
 372 391 l 0,34,35
 395 418 395 418 434 418 c 0,36,37
 459 418 459 418 474 403 c 128,-1,38
 489 388 489 388 491 364 c 0,39,40
 491 343 491 343 478 328.5 c 128,-1,41
 465 314 465 314 446 314 c 0,42,43
 433 314 433 314 411 325 c 0,44,45
 400 332 400 332 391 333 c 0,46,47
 388 333 388 333 385.5 331.5 c 128,-1,48
 383 330 383 330 381.5 328.5 c 128,-1,49
 380 327 380 327 376 323 c 0,50,51
 373 319 373 319 372 317 c 0,52,-1
 393 341 l 1,53,-1
 275 202 l 1,54,-1
 335 46 l 1,55,56
 341 33 341 33 348 33 c 0,57,58
 366 33 366 33 383 55 c 2,59,-1
 420 103 l 1,60,-1
 433 94 l 1,61,62
 397 37 397 37 368.5 13 c 128,-1,63
 340 -11 340 -11 309 -11 c 0,64,65
 271 -11 271 -11 264 11 c 1,66,-1
 215 144 l 1,67,-1
 109 16 l 1,0,1
EndSplineSet
EndChar

StartChar: y
Encoding: 121 121 92
Width: 534
Flags: W
LayerCount: 2
Fore
SplineSet
-33 -299 m 0,0,1
 -55 -285 -55 -285 -60 -258 c 0,2,3
 -54 -234 -54 -234 -50 -216 c 0,4,5
 -34 -197 -34 -197 -9 -197 c 1,6,-1
 22 -216 l 1,7,8
 54 -216 54 -216 59 -216 c 2,9,-1
 197 -10 l 1,10,-1
 120 354 l 1,11,-1
 121 353 l 0,12,13
 118 367 118 367 108 367 c 0,14,15
 89 367 89 367 66 336 c 2,16,-1
 34 294 l 1,17,-1
 19 305 l 1,18,19
 59 366 59 366 88.5 391 c 128,-1,20
 118 416 118 416 153 416 c 0,21,22
 201 416 201 416 208 381 c 0,23,-1
 213 355 l 1,24,-1
 267 93 l 1,25,-1
 437 347 l 1,26,-1
 451 369 l 0,27,28
 470 398 470 398 488 408 c 0,29,30
 506 418 506 418 531 418 c 0,31,32
 555 418 555 418 570.5 403 c 128,-1,33
 586 388 586 388 587 364 c 0,34,35
 587 343 587 343 574 328 c 128,-1,36
 561 313 561 313 542 313 c 0,37,38
 528 313 528 313 507 325 c 0,39,40
 496 333 496 333 488 333 c 0,41,42
 484 333 484 333 481 331 c 128,-1,43
 478 329 478 329 476.5 326 c 128,-1,44
 475 323 475 323 471 316.5 c 128,-1,45
 467 310 467 310 464 306 c 0,46,-1
 493 349 l 1,47,-1
 115 -216 l 2,48,49
 100 -238 100 -238 45 -279 c 0,50,51
 25 -294 25 -294 3 -299 c 0,52,53
 -21 -299 -21 -299 -33 -299 c 0,0,1
EndSplineSet
EndChar

StartChar: z
Encoding: 122 122 93
Width: 370
Flags: W
LayerCount: 2
Fore
SplineSet
0 0 m 1,0,-1
 264 363 l 1,1,-1
 140 363 l 1,2,-1
 85 283 l 1,3,-1
 65 283 l 1,4,-1
 94 406 l 1,5,-1
 378 406 l 1,6,-1
 115 43 l 1,7,-1
 257 43 l 1,8,-1
 312 123 l 1,9,-1
 332 123 l 1,10,-1
 303 0 l 1,11,-1
 0 0 l 1,0,-1
EndSplineSet
EndChar

StartChar: braceleft
Encoding: 123 123 94
Width: 384
Flags: W
CounterMasks: 1 e0
LayerCount: 2
Fore
SplineSet
228 -43 m 1,0,1
 198 -35 198 -35 159 0 c 0,2,3
 139 17 139 17 129 43 c 0,4,5
 112 86 112 86 109 128 c 0,6,7
 108 150 108 150 119 171 c 2,8,-1
 178 256 l 2,9,10
 181 264 181 264 168 299 c 0,11,12
 163 311 163 311 153 319 c 0,13,14
 133 336 133 336 119 341 c 1,15,-1
 79 341 l 1,16,-1
 89 384 l 1,17,-1
 129 384 l 1,18,19
 146 388 146 388 173 406 c 0,20,21
 186 414 186 414 197 427 c 0,22,23
 226 461 226 461 227 469 c 2,24,-1
 207 555 l 2,25,26
 206 577 206 577 217 597 c 0,27,28
 240 639 240 639 277 683 c 0,29,30
 299 709 299 709 326 725 c 0,31,32
 381 759 381 759 415 768 c 1,33,-1
 494 768 l 1,34,-1
 485 725 l 1,35,-1
 405 725 l 2,36,37
 392 723 392 723 361 705 c 0,38,39
 348 697 348 697 337 683 c 0,40,41
 315 656 315 656 307 640 c 0,42,43
 296 615 296 615 297 597 c 2,44,-1
 316 512 l 2,45,46
 317 494 317 494 306 469 c 0,47,48
 298 452 298 452 278 427 c 0,49,50
 266 413 266 413 253 406 c 2,51,-1
 163 362 l 1,52,-1
 233 319 l 2,53,54
 243 312 243 312 249 299 c 0,55,56
 259 273 259 273 257 256 c 0,57,58
 257 231 257 231 247 213 c 2,59,-1
 189 128 l 2,60,61
 179 110 179 110 179 85 c 0,62,63
 180 69 180 69 189 43 c 0,64,65
 193 30 193 30 203 22 c 0,66,67
 226 4 226 4 238 0 c 1,68,-1
 317 0 l 1,69,-1
 307 -43 l 1,70,-1
 228 -43 l 1,0,1
EndSplineSet
EndChar

StartChar: bar
Encoding: 124 124 95
Width: 106
Flags: W
LayerCount: 2
Fore
SplineSet
-10 -43 m 1,0,-1
 177 768 l 1,1,-1
 217 768 l 1,2,-1
 30 -43 l 1,3,-1
 -10 -43 l 1,0,-1
EndSplineSet
EndChar

StartChar: braceright
Encoding: 125 125 96
Width: 384
Flags: W
CounterMasks: 1 e0
LayerCount: 2
Fore
SplineSet
-10 -43 m 1,0,-1
 0 0 l 1,1,-1
 79 0 l 2,2,3
 93 3 93 3 124 22 c 0,4,5
 138 30 138 30 149 43 c 0,6,7
 171 69 171 69 179 85 c 0,8,9
 190 110 190 110 189 128 c 2,10,-1
 168 213 l 2,11,12
 167 231 167 231 178 256 c 0,13,14
 186 273 186 273 209 299 c 0,15,16
 222 313 222 313 233 319 c 2,17,-1
 322 362 l 1,18,-1
 253 406 l 2,19,20
 243 413 243 413 238 427 c 0,21,22
 228 453 228 453 227 469 c 0,23,24
 227 494 227 494 237 512 c 2,25,-1
 297 597 l 2,26,27
 307 615 307 615 307 640 c 0,28,29
 307 657 307 657 297 683 c 0,30,31
 293 696 293 696 282 705 c 0,32,33
 259 723 259 723 246 725 c 2,34,-1
 167 725 l 1,35,-1
 177 768 l 1,36,-1
 256 768 l 1,37,38
 286 760 286 760 326 725 c 0,39,40
 346 709 346 709 356 683 c 0,41,42
 373 640 373 640 376 597 c 0,43,44
 377 575 377 575 366 555 c 2,45,-1
 306 469 l 2,46,47
 303 461 303 461 316 427 c 0,48,49
 321 415 321 415 332 406 c 2,50,-1
 367 384 l 1,51,-1
 406 384 l 1,52,-1
 396 341 l 1,53,-1
 357 341 l 1,54,-1
 312 319 l 2,55,56
 299 311 299 311 287 299 c 0,57,58
 258 265 258 265 257 256 c 2,59,-1
 278 171 l 2,60,61
 279 149 279 149 268 128 c 0,62,63
 245 85 245 85 208 43 c 0,64,65
 186 17 186 17 159 0 c 0,66,67
 104 -34 104 -34 69 -43 c 1,68,-1
 -10 -43 l 1,0,-1
EndSplineSet
EndChar

StartChar: asciitilde
Encoding: 126 126 97
Width: 423
Flags: W
LayerCount: 2
Fore
SplineSet
118 512 m 1,0,-1
 128 555 l 1,1,2
 136 572 136 572 158 597 c 0,3,4
 168 609 168 609 183 618 c 0,5,6
 211 635 211 635 227 640 c 0,7,8
 252 646 252 646 267 640 c 0,9,10
 289 632 289 632 336 597 c 2,11,-1
 387 555 l 2,12,13
 397 549 397 549 406 555 c 0,14,15
 430 569 430 569 455 597 c 1,16,-1
 484 640 l 1,17,-1
 505 640 l 1,18,-1
 495 597 l 1,19,20
 488 581 488 581 465 555 c 0,21,22
 455 542 455 542 440 534 c 0,23,24
 412 517 412 517 396 512 c 0,25,26
 371 506 371 506 356 512 c 0,27,28
 333 521 333 521 287 555 c 2,29,-1
 236 597 l 2,30,31
 226 603 226 603 217 597 c 0,32,33
 193 583 193 583 168 555 c 1,34,-1
 139 512 l 1,35,-1
 118 512 l 1,0,-1
EndSplineSet
EndChar

StartChar: exclamdown
Encoding: 161 161 98
Width: 185
Flags: W
LayerCount: 2
Fore
SplineSet
207 725 m 1,0,-1
 158 683 l 1,1,-1
 148 640 l 1,2,-1
 178 597 l 1,3,-1
 217 597 l 1,4,-1
 267 640 l 1,5,-1
 277 683 l 1,6,-1
 246 725 l 1,7,-1
 207 725 l 1,0,-1
158 512 m 1,8,-1
 79 341 l 1,9,-1
 20 85 l 1,10,-1
 40 0 l 1,11,-1
 79 0 l 1,12,-1
 139 85 l 1,13,-1
 198 341 l 1,14,-1
 197 512 l 1,15,-1
 158 512 l 1,8,-1
EndSplineSet
EndChar

StartChar: cent
Encoding: 162 162 99
Width: 463
Flags: W
LayerCount: 2
Fore
SplineSet
377 580 m 1,0,-1
 427 580 l 1,1,-1
 117 -123 l 1,2,-1
 65 -123 l 1,3,-1
 377 580 l 1,0,-1
159 0 m 0,4,5
 132 6 132 6 89 43 c 0,6,7
 69 59 69 59 60 85 c 0,8,9
 40 136 40 136 40 171 c 0,10,11
 41 214 41 214 59 256 c 0,12,13
 74 290 74 290 119 341 c 0,14,15
 140 367 140 367 168 384 c 0,16,17
 227 421 227 421 258 427 c 0,18,19
 319 439 319 439 377 427 c 0,20,21
 424 416 424 416 446 384 c 0,22,23
 458 367 458 367 436 341 c 0,24,25
 418 319 418 319 391 319 c 0,26,27
 371 319 371 319 357 341 c 1,28,-1
 347 384 l 1,29,30
 305 400 305 400 248 384 c 0,31,32
 231 379 231 379 198 341 c 0,33,34
 154 290 154 290 138 256 c 0,35,36
 119 213 119 213 119 171 c 0,37,38
 119 137 119 137 139 85 c 0,39,40
 154 46 154 46 169 43 c 0,41,42
 224 27 224 27 288 43 c 1,43,-1
 422 106 l 1,44,-1
 412 63 l 1,45,-1
 278 0 l 1,46,47
 223 -14 223 -14 159 0 c 0,4,5
EndSplineSet
EndChar

StartChar: sterling
Encoding: 163 163 100
Width: 423
Flags: W
LayerCount: 2
Fore
SplineSet
285 351 m 1024,0,-1
97 12 m 1,1,-1
 18 0 l 1,2,-1
 -31 23 l 1,3,4
 -58 62 -58 62 -42 84 c 1,5,-1
 -42 84 l 1,6,-1
 -21 125 l 2,7,8
 -9 141 -9 141 17 159 c 0,9,10
 29 168 29 168 45 174 c 0,11,12
 74 183 74 183 90 182 c 0,13,14
 97 182 97 182 104 181 c 1,15,-1
 107 351 l 1,16,-1
 27 351 l 1,17,-1
 33 378 l 1,18,-1
 103 378 l 1,19,-1
 92 452 l 1,20,21
 91 492 91 492 108 538 c 0,22,23
 115 555 115 555 161 604 c 0,24,25
 176 619 176 619 186 626 c 0,26,27
 219 646 219 646 230 647 c 0,28,29
 314 655 314 655 349 647 c 0,30,31
 397 636 397 636 419 604 c 0,32,33
 431 587 431 587 409 561 c 0,34,35
 391 539 391 539 364 540 c 0,36,37
 344 540 344 540 329 561 c 1,38,-1
 320 604 l 1,39,40
 293 613 293 613 220 604 c 0,41,42
 205 602 205 602 190 590 c 0,43,44
 178 580 178 580 171 561 c 0,45,46
 160 534 160 534 161 519 c 0,47,48
 164 473 164 473 170 434 c 2,49,-1
 178 378 l 1,50,-1
 291 378 l 1,51,-1
 285 351 l 1,52,-1
 182 351 l 1,53,-1
 174 106 l 2,54,55
 175 105 l 2,56,-1
 208 46 l 2,57,58
 215 37 215 37 225 40 c 0,59,60
 250 48 250 48 280 68 c 1,61,-1
 319 104 l 1,62,-1
 337 97 l 1,63,-1
 317 56 l 1,64,65
 305 41 305 41 278 22 c 0,66,67
 265 12 265 12 250 8 c 0,68,69
 221 -1 221 -1 205 -1 c 0,70,71
 182 0 182 0 169 11 c 0,72,73
 156 23 156 23 135 53 c 1,74,-1
 97 12 l 1,1,-1
18 74 m 1,75,-1
 48 46 l 1,76,77
 62 49 62 49 72 58 c 0,78,79
 81 66 81 66 93 87 c 0,80,81
 98 97 98 97 101 110 c 1,82,-1
 87 135 l 2,83,84
 82 144 82 144 69 141 c 0,85,86
 44 133 44 133 14 113 c 1,87,-1
 18 74 l 1,75,-1
EndSplineSet
EndChar

StartChar: currency
Encoding: 164 164 101
Width: 460
Flags: W
LayerCount: 2
Fore
SplineSet
124 547 m 1,0,-1
 162 579 l 1,1,-1
 191 538 l 1,2,3
 214 551 214 551 230 555 c 0,4,5
 252 560 252 560 270 555 c 0,6,7
 284 551 284 551 301 537 c 1,8,-1
 349 579 l 1,9,-1
 373 547 l 1,10,-1
 323 504 l 1,11,12
 330 484 330 484 329 470 c 0,13,14
 329 448 329 448 319 427 c 0,15,16
 312 412 312 412 295 390 c 1,17,-1
 326 345 l 1,18,-1
 288 312 l 1,19,-1
 257 358 l 1,20,21
 235 345 235 345 220 342 c 0,22,23
 198 337 198 337 180 342 c 0,24,25
 168 345 168 345 152 357 c 1,26,-1
 100 312 l 1,27,-1
 77 345 l 1,28,-1
 129 389 l 1,29,30
 120 411 120 411 121 427 c 0,31,32
 121 449 121 449 131 470 c 0,33,34
 137 485 137 485 154 504 c 1,35,-1
 124 547 l 1,0,-1
230 385 m 128,-1,37
 251 389 251 389 260 397 c 0,38,39
 270 406 270 406 280 427 c 0,40,41
 289 449 289 449 290 470 c 0,42,43
 291 481 291 481 288 488 c 2,44,-1
 275 507 l 2,45,46
 268 511 268 511 260 513 c 0,47,48
 240 517 240 517 220 513 c 0,49,50
 212 511 212 511 205 509 c 2,51,-1
 177 485 l 2,52,53
 174 478 174 478 171 470 c 0,54,55
 162 448 162 448 160 427 c 0,56,57
 159 412 159 412 162 403 c 2,58,-1
 169 393 l 2,59,60
 176 387 176 387 190 385 c 0,61,36
 209 381 209 381 230 385 c 128,-1,37
EndSplineSet
EndChar

StartChar: yen
Encoding: 165 165 102
Width: 661
Flags: W
LayerCount: 2
Fore
SplineSet
195 218 m 1,0,-1
 552 218 l 1,1,-1
 540 169 l 1,2,-1
 184 169 l 1,3,-1
 195 218 l 1,0,-1
218 318 m 1,4,-1
 575 318 l 1,5,-1
 563 269 l 1,6,-1
 207 269 l 1,7,-1
 218 318 l 1,4,-1
198 0 m 1,8,-1
 203 22 l 1,9,-1
 293 63 l 1,10,-1
 357 341 l 1,11,-1
 232 662 l 1,12,-1
 163 705 l 1,13,-1
 167 725 l 1,14,-1
 405 725 l 1,15,-1
 401 705 l 1,16,-1
 335 672 l 1,17,-1
 429 427 l 1,18,-1
 438 406 l 1,19,-1
 674 683 l 1,20,-1
 639 705 l 1,21,-1
 644 725 l 1,22,-1
 763 725 l 1,23,-1
 758 705 l 1,24,-1
 735 693 l 1,25,-1
 726 683 l 1,26,-1
 473 384 l 1,27,-1
 436 341 l 1,28,-1
 372 63 l 1,29,-1
 441 22 l 1,30,-1
 436 0 l 1,31,-1
 198 0 l 1,8,-1
EndSplineSet
EndChar

StartChar: brokenbar
Encoding: 166 166 103
Width: 178
VWidth: 1047
Flags: W
LayerCount: 2
Fore
SplineSet
-15 -66 m 1,0,-1
 70 302 l 1,1,-1
 112 302 l 1,2,-1
 28 -66 l 1,3,-1
 -15 -66 l 1,0,-1
98 425 m 1,4,-1
 176 762 l 1,5,-1
 219 762 l 1,6,-1
 140 425 l 1,7,-1
 98 425 l 1,4,-1
EndSplineSet
EndChar

StartChar: section
Encoding: 167 167 104
Width: 343
Flags: W
LayerCount: 2
Fore
SplineSet
76 10 m 0,0,1
 43 22 43 22 27 57 c 0,2,3
 19 76 19 76 38 103 c 0,4,5
 54 127 54 127 74 127 c 0,6,7
 88 127 88 127 97 103 c 1,8,-1
 101 57 l 1,9,10
 116 48 116 48 176 57 c 0,11,12
 189 59 189 59 200 72 c 0,13,14
 210 83 210 83 216 103 c 0,15,16
 229 141 229 141 227 150 c 0,17,18
 218 182 218 182 185 200 c 1,19,-1
 167 205 l 2,20,21
 154 206 154 206 144 210 c 0,22,23
 122 218 122 218 107 235 c 0,24,25
 102 239 102 239 101 244 c 0,26,27
 81 271 81 271 81 291 c 0,28,29
 82 323 82 323 103 385 c 0,30,31
 107 400 107 400 128 432 c 0,32,33
 137 446 137 446 150 456 c 0,34,35
 155 460 155 460 158 463 c 1,36,37
 149 480 149 480 149 492 c 0,38,39
 150 524 150 524 170 586 c 0,40,41
 175 601 175 601 197 633 c 0,42,43
 207 648 207 648 217 656 c 0,44,45
 243 678 243 678 253 680 c 0,46,47
 310 691 310 691 342 680 c 0,48,49
 375 668 375 668 391 633 c 0,50,51
 399 614 399 614 380 586 c 0,52,53
 364 562 364 562 344 563 c 0,54,55
 330 563 330 563 320 586 c 1,56,-1
 316 633 l 1,57,58
 301 642 301 642 242 633 c 0,59,60
 229 631 229 631 218 618 c 0,61,62
 208 607 208 607 201 586 c 0,63,64
 188 548 188 548 190 539 c 0,65,66
 199 507 199 507 233 489 c 1,67,-1
 250 484 l 2,68,69
 263 483 263 483 273 479 c 0,70,71
 295 471 295 471 310 454 c 0,72,73
 315 450 315 450 317 446 c 0,74,75
 337 419 337 419 336 398 c 0,76,77
 335 366 335 366 315 305 c 0,78,79
 311 290 311 290 289 257 c 0,80,81
 280 243 280 243 268 234 c 0,82,83
 263 230 263 230 260 227 c 1,84,85
 269 210 269 210 269 198 c 0,86,87
 268 166 268 166 247 103 c 0,88,89
 242 88 242 88 220 57 c 0,90,91
 210 42 210 42 200 33 c 0,92,93
 174 11 174 11 165 10 c 0,94,95
 108 -1 108 -1 76 10 c 0,0,1
178 433 m 0,96,97
 176 433 176 433 173 432 c 0,98,99
 160 430 160 430 150 416 c 0,100,101
 140 405 140 405 133 385 c 0,102,103
 120 347 120 347 123 339 c 0,104,105
 130 319 130 319 163 299 c 1,106,-1
 211 284 l 1,107,108
 225 275 225 275 240 257 c 0,109,110
 242 257 242 257 244 257 c 0,111,112
 257 259 257 259 267 273 c 0,113,114
 277 284 277 284 284 305 c 0,115,116
 297 343 297 343 295 351 c 0,117,118
 288 371 288 371 254 390 c 1,119,-1
 206 405 l 1,120,121
 193 414 193 414 178 433 c 0,96,97
EndSplineSet
EndChar

StartChar: dieresis
Encoding: 168 168 105
Width: 189
Flags: W
LayerCount: 2
Fore
SplineSet
431 516 m 1,0,-1
 381 474 l 1,1,-1
 341 474 l 1,2,-1
 312 516 l 1,3,-1
 322 559 l 1,4,-1
 371 602 l 1,5,-1
 411 602 l 1,6,-1
 441 559 l 1,7,-1
 431 516 l 1,0,-1
238 514 m 1,8,-1
 188 471 l 1,9,-1
 148 471 l 1,10,-1
 119 514 l 1,11,-1
 129 557 l 1,12,-1
 177 599 l 1,13,-1
 217 599 l 1,14,-1
 248 557 l 1,15,-1
 238 514 l 1,8,-1
EndSplineSet
EndChar

StartChar: copyright
Encoding: 169 169 106
Width: 1512
VWidth: 2096
Flags: W
LayerCount: 2
Fore
SplineSet
585 318 m 1,0,1
 576 278 576 278 558.5 248 c 128,-1,2
 541 218 541 218 516 198 c 128,-1,3
 491 178 491 178 459.5 168 c 128,-1,4
 428 158 428 158 391 158 c 0,5,6
 353 158 353 158 325.5 172 c 128,-1,7
 298 186 298 186 283 212.5 c 128,-1,8
 268 239 268 239 265 275.5 c 128,-1,9
 262 312 262 312 272 356 c 2,10,-1
 286 415 l 2,11,12
 296 459 296 459 315.5 495.5 c 128,-1,13
 335 532 335 532 362.5 558 c 128,-1,14
 390 584 390 584 424 598.5 c 128,-1,15
 458 613 458 613 496 613 c 0,16,17
 532 613 532 613 559.5 603 c 128,-1,18
 587 593 587 593 602.5 573 c 128,-1,19
 618 553 618 553 622.5 523 c 128,-1,20
 627 493 627 493 617 453 c 1,21,-1
 548 453 l 1,22,23
 560 504 560 504 542.5 525.5 c 128,-1,24
 525 547 525 547 481 547 c 0,25,26
 457 547 457 547 437 537.5 c 128,-1,27
 417 528 417 528 401 510.5 c 128,-1,28
 385 493 385 493 373 468 c 0,29,30
 361 443 361 443 355 416 c 2,31,-1
 341 356 l 2,32,33
 334 327 334 327 334.5 302.5 c 128,-1,34
 335 278 335 278 343 260.5 c 128,-1,35
 351 243 351 243 366.5 233.5 c 128,-1,36
 382 224 382 224 406 224 c 0,37,38
 450 224 450 224 477.5 245.5 c 128,-1,39
 505 267 505 267 517 318 c 1,40,-1
 585 318 l 1,0,1
167 386 m 0,41,42
 151 317 151 317 159.5 258.5 c 128,-1,43
 168 200 168 200 197 156.5 c 128,-1,44
 226 113 226 113 271.5 88 c 128,-1,45
 317 63 317 63 376 63 c 256,46,47
 435 63 435 63 491.5 88 c 128,-1,48
 548 113 548 113 597 156.5 c 128,-1,49
 646 200 646 200 681.5 258.5 c 128,-1,50
 717 317 717 317 733 386 c 0,51,52
 749 454 749 454 740 512.5 c 128,-1,53
 731 571 731 571 702.5 614.5 c 128,-1,54
 674 658 674 658 628.5 682.5 c 128,-1,55
 583 707 583 707 524 707 c 256,56,57
 465 707 465 707 408 682.5 c 128,-1,58
 351 658 351 658 302.5 614.5 c 128,-1,59
 254 571 254 571 218.5 512.5 c 128,-1,60
 183 454 183 454 167 386 c 0,41,42
112 386 m 256,61,62
 124 440 124 440 147.5 489.5 c 128,-1,63
 171 539 171 539 203 581.5 c 128,-1,64
 235 624 235 624 274 658.5 c 128,-1,65
 313 693 313 693 356.5 717.5 c 128,-1,66
 400 742 400 742 445.5 755.5 c 128,-1,67
 491 769 491 769 539 769 c 0,68,69
 585 769 585 769 625 755.5 c 128,-1,70
 665 742 665 742 697 717.5 c 128,-1,71
 729 693 729 693 751.5 658.5 c 128,-1,72
 774 624 774 624 786.5 581.5 c 128,-1,73
 799 539 799 539 799.5 489.5 c 128,-1,74
 800 440 800 440 788 386 c 256,75,76
 776 332 776 332 752 282.5 c 128,-1,77
 728 233 728 233 696 190 c 128,-1,78
 664 147 664 147 625.5 112.5 c 128,-1,79
 587 78 587 78 543.5 53.5 c 128,-1,80
 500 29 500 29 454 15.5 c 128,-1,81
 408 2 408 2 362 2 c 256,82,83
 316 2 316 2 275.5 15.5 c 128,-1,84
 235 29 235 29 203 53.5 c 128,-1,85
 171 78 171 78 148 112.5 c 128,-1,86
 125 147 125 147 113 190 c 128,-1,87
 101 233 101 233 100.5 282.5 c 128,-1,88
 100 332 100 332 112 386 c 256,61,62
EndSplineSet
EndChar

StartChar: ordfeminine
Encoding: 170 170 107
Width: 420
Flags: W
LayerCount: 2
Fore
SplineSet
218 531 m 0,0,1
 226 532 226 532 233 539 c 0,2,3
 240 545 240 545 243 553 c 2,4,-1
 258 616 l 1,5,-1
 197 616 l 2,6,7
 189 615 189 615 182.5 609 c 128,-1,8
 176 603 176 603 173 596 c 0,9,10
 165 574 165 574 163 553 c 0,11,12
 162 545 162 545 166 538.5 c 128,-1,13
 170 532 170 532 178 531 c 0,14,15
 197 528 197 528 218 531 c 0,0,1
173 510 m 0,16,17
 161 512 161 512 138 531 c 0,18,19
 124 543 124 543 124 553 c 0,20,21
 123 575 123 575 134 596 c 0,22,23
 139 605 139 605 157 616 c 0,24,25
 187 634 187 634 202 638 c 1,26,-1
 263 638 l 1,27,-1
 273 681 l 2,28,29
 274 689 274 689 269.5 695 c 128,-1,30
 265 701 265 701 257 702 c 0,31,32
 235 706 235 706 228 702 c 2,33,-1
 212 681 l 2,34,35
 200 671 200 671 190 671 c 0,36,37
 177 671 177 671 172 681 c 0,38,39
 168 694 168 694 177 702 c 0,40,41
 193 716 193 716 222 724 c 0,42,43
 244 729 244 729 262 724 c 0,44,45
 277 720 277 720 296 702 c 0,46,47
 312 689 312 689 312 681 c 2,48,-1
 282 553 l 1,49,-1
 285 539 l 1,50,-1
 297 531 l 1,51,-1
 320 543 l 1,52,-1
 315 521 l 1,53,-1
 292 510 l 1,54,-1
 272 510 l 1,55,-1
 254 521 l 1,56,-1
 247 531 l 1,57,-1
 246 539 l 1,58,-1
 213 510 l 1,59,60
 196 507 196 507 173 510 c 0,16,17
EndSplineSet
EndChar

StartChar: guillemotleft
Encoding: 171 171 108
Width: 385
Flags: W
LayerCount: 2
Fore
SplineSet
402 194 m 1,0,-1
 230 364 l 1,1,-1
 240 407 l 1,2,-1
 491 578 l 1,3,-1
 481 535 l 1,4,-1
 274 385 l 1,5,-1
 412 236 l 1,6,-1
 402 194 l 1,0,-1
256 193 m 1,7,-1
 84 362 l 1,8,-1
 94 406 l 1,9,-1
 344 575 l 1,10,-1
 334 534 l 1,11,-1
 129 384 l 1,12,-1
 265 234 l 1,13,-1
 256 193 l 1,7,-1
EndSplineSet
EndChar

StartChar: logicalnot
Encoding: 172 172 109
Width: 423
Flags: W
LayerCount: 2
Fore
SplineSet
89 384 m 1,0,-1
 99 427 l 1,1,-1
 456 427 l 1,2,-1
 422 279 l 1,3,-1
 380 279 l 1,4,-1
 404 384 l 1,5,-1
 89 384 l 1,0,-1
EndSplineSet
EndChar

StartChar: uni00AD
Encoding: 173 173 110
Width: 423
Flags: W
LayerCount: 2
Fore
SplineSet
89 384 m 1,0,-1
 99 427 l 1,1,-1
 456 427 l 1,2,-1
 446 384 l 1,3,-1
 89 384 l 1,0,-1
EndSplineSet
EndChar

StartChar: registered
Encoding: 174 174 111
Width: 1513
VWidth: 2096
Flags: W
LayerCount: 2
Fore
SplineSet
90 386 m 256,0,1
 102 440 102 440 126 489.5 c 128,-1,2
 150 539 150 539 181.5 581.5 c 128,-1,3
 213 624 213 624 251.5 658.5 c 128,-1,4
 290 693 290 693 333.5 717.5 c 128,-1,5
 377 742 377 742 423.5 755.5 c 128,-1,6
 470 769 470 769 516 769 c 256,7,8
 562 769 562 769 602.5 755.5 c 128,-1,9
 643 742 643 742 674.5 717.5 c 128,-1,10
 706 693 706 693 729 658.5 c 128,-1,11
 752 624 752 624 764 581.5 c 128,-1,12
 776 539 776 539 777 489.5 c 128,-1,13
 778 440 778 440 765 386 c 256,14,15
 753 332 753 332 729.5 282.5 c 128,-1,16
 706 233 706 233 674 190 c 128,-1,17
 642 147 642 147 603 112.5 c 128,-1,18
 564 78 564 78 521 53.5 c 128,-1,19
 478 29 478 29 431.5 15.5 c 128,-1,20
 385 2 385 2 339 2 c 256,21,22
 293 2 293 2 252.5 15.5 c 128,-1,23
 212 29 212 29 180 53.5 c 128,-1,24
 148 78 148 78 125.5 112.5 c 128,-1,25
 103 147 103 147 91 190 c 128,-1,26
 79 233 79 233 78.5 282.5 c 128,-1,27
 78 332 78 332 90 386 c 256,0,1
144 386 m 0,28,29
 128 317 128 317 137.5 258.5 c 128,-1,30
 147 200 147 200 175 156.5 c 128,-1,31
 203 113 203 113 248.5 88 c 128,-1,32
 294 63 294 63 353 63 c 256,33,34
 412 63 412 63 469 88 c 128,-1,35
 526 113 526 113 575 156.5 c 128,-1,36
 624 200 624 200 659 258.5 c 128,-1,37
 694 317 694 317 710 386 c 0,38,39
 726 454 726 454 717.5 512.5 c 128,-1,40
 709 571 709 571 680.5 614.5 c 128,-1,41
 652 658 652 658 606 682.5 c 128,-1,42
 560 707 560 707 502 707 c 256,43,44
 443 707 443 707 386 682.5 c 128,-1,45
 329 658 329 658 280.5 614.5 c 128,-1,46
 232 571 232 571 196 512.5 c 128,-1,47
 160 454 160 454 144 386 c 0,28,29
349 348 m 1,48,-1
 309 175 l 1,49,-1
 242 175 l 1,50,-1
 342 609 l 1,51,-1
 474 609 l 2,52,53
 509 609 509 609 535.5 601 c 128,-1,54
 562 593 562 593 578 577 c 128,-1,55
 594 561 594 561 599 536 c 128,-1,56
 604 511 604 511 597 478 c 0,57,58
 590 446 590 446 568.5 422 c 128,-1,59
 547 398 547 398 513 382 c 1,60,61
 527 375 527 375 536.5 364 c 128,-1,62
 546 353 546 353 549.5 339.5 c 128,-1,63
 553 326 553 326 552 310 c 128,-1,64
 551 294 551 294 547 276 c 2,65,-1
 541 248 l 2,66,67
 537 229 537 229 534.5 212 c 128,-1,68
 532 195 532 195 534 183 c 1,69,-1
 532 175 l 1,70,-1
 464 175 l 1,71,72
 463 182 463 182 463.5 192 c 128,-1,73
 464 202 464 202 465.5 212.5 c 128,-1,74
 467 223 467 223 469.5 233 c 128,-1,75
 472 243 472 243 473 248 c 2,76,-1
 479 275 l 2,77,78
 488 312 488 312 476 330 c 128,-1,79
 464 348 464 348 426 348 c 2,80,-1
 349 348 l 1,48,-1
364 413 m 1,81,-1
 438 413 l 2,82,83
 453 414 453 414 468 418 c 128,-1,84
 483 422 483 422 495 429.5 c 128,-1,85
 507 437 507 437 516.5 448.5 c 128,-1,86
 526 460 526 460 529 476 c 0,87,88
 533 495 533 495 531.5 508 c 128,-1,89
 530 521 530 521 522 529 c 128,-1,90
 514 537 514 537 498.5 540.5 c 128,-1,91
 483 544 483 544 459 544 c 2,92,-1
 394 544 l 1,93,-1
 364 413 l 1,81,-1
EndSplineSet
EndChar

StartChar: macron
Encoding: 175 175 112
Width: 303
Flags: W
LayerCount: 2
Fore
SplineSet
365 725 m 1,0,-1
 167 725 l 1,1,-1
 177 768 l 1,2,-1
 375 768 l 1,3,-1
 365 725 l 1,0,-1
EndSplineSet
EndChar

StartChar: degree
Encoding: 176 176 113
Width: 459
Flags: W
LayerCount: 2
Fore
SplineSet
247.5 555 m 128,-1,1
 269 559 269 559 278 567 c 0,2,3
 288 576 288 576 297 597 c 0,4,5
 306 619 306 619 307 640.5 c 128,-1,6
 308 662 308 662 302 670 c 0,7,8
 296 679 296 679 277 683 c 0,9,10
 257 687 257 687 236 683 c 128,-1,11
 215 679 215 679 206 670 c 0,12,13
 196 661 196 661 188 640 c 0,14,15
 179 618 179 618 177.5 596.5 c 128,-1,16
 176 575 176 575 182 567 c 0,17,18
 188 558 188 558 207 555 c 0,19,0
 226 551 226 551 247.5 555 c 128,-1,1
197 512 m 0,20,21
 182 516 182 516 163 534 c 0,22,23
 153 542 153 542 149 555 c 0,24,25
 139 581 139 581 138 597 c 0,26,27
 138 619 138 619 148 640 c 0,28,29
 156 657 156 657 178 683 c 0,30,31
 188 696 188 696 203 705 c 0,32,33
 230 721 230 721 246 725 c 0,34,35
 268 730 268 730 286 725 c 0,36,37
 301 721 301 721 322 705 c 0,38,39
 332 697 332 697 337 683 c 0,40,41
 347 657 347 657 346 640 c 0,42,43
 346 618 346 618 336 597 c 0,44,45
 328 580 328 580 308 555 c 0,46,47
 298 543 298 543 282 534 c 0,48,49
 254 517 254 517 237 512 c 0,50,51
 216 507 216 507 197 512 c 0,20,21
EndSplineSet
EndChar

StartChar: uni00B2
Encoding: 178 178 115
Width: 497
Flags: W
LayerCount: 2
Fore
SplineSet
131 482 m 1,0,-1
 136 503 l 1,1,-1
 243 595 l 2,2,3
 259 610 259 610 271 637 c 0,4,5
 277 649 277 649 278 665 c 0,6,7
 278 676 278 676 271 693 c 0,8,9
 266 705 266 705 262 708 c 0,10,11
 243 713 243 713 222 708 c 1,12,-1
 178 686 l 1,13,-1
 182 700 l 1,14,-1
 225 721 l 1,15,16
 242 725 242 725 265 721 c 0,17,18
 282 718 282 718 299 708 c 0,19,20
 305 704 305 704 309 693 c 0,21,22
 316 677 316 677 315 665 c 0,23,24
 315 651 315 651 308 637 c 0,25,26
 300 620 300 620 290 608 c 2,27,-1
 185 524 l 1,28,-1
 262 524 l 1,29,-1
 276 524 l 1,30,-1
 289 524 l 1,31,-1
 260 482 l 1,32,-1
 131 482 l 1,0,-1
EndSplineSet
EndChar

StartChar: uni00B3
Encoding: 179 179 116
Width: 458
Flags: W
LayerCount: 2
Fore
SplineSet
114 479 m 0,0,1
 114 482 114 482 114.5 485 c 128,-1,2
 115 488 115 488 116 490 c 128,-1,3
 117 492 117 492 119.5 495 c 128,-1,4
 122 498 122 498 124 499.5 c 128,-1,5
 126 501 126 501 128 503 c 2,6,-1
 130 505 l 1,7,-1
 134 505 l 1,8,-1
 140 505 l 1,9,10
 164 512 164 512 180 519 c 0,11,12
 197 526 197 526 207 532 c 0,13,14
 211 534 211 534 215 537 c 0,15,16
 219 540 219 540 221 544 c 0,17,18
 232 557 232 557 239 570 c 0,19,20
 241 574 241 574 241 579 c 0,21,22
 239 596 239 596 236 604 c 0,23,24
 235 606 235 606 228 608 c 0,25,26
 225 609 225 609 223 609 c 128,-1,27
 221 609 221 609 220 609 c 2,28,-1
 177 588 l 1,29,-1
 163 582 l 1,30,-1
 166 595 l 1,31,-1
 170 610 l 1,32,-1
 171 615 l 1,33,-1
 176 617 l 1,34,-1
 234 645 l 2,35,36
 245 653 245 653 249 666 c 0,37,38
 249 667 249 667 248 669.5 c 128,-1,39
 247 672 247 672 245.5 677.5 c 128,-1,40
 244 683 244 683 242 689 c 0,41,42
 241 692 241 692 239 695 c 128,-1,43
 237 698 237 698 236.5 699 c 128,-1,44
 236 700 236 700 235 700 c 0,45,46
 225 703 225 703 215 700 c 2,47,-1
 172 679 l 1,48,-1
 158 673 l 1,49,-1
 161 687 l 1,50,-1
 165 701 l 1,51,-1
 165 705 l 1,52,-1
 169 708 l 2,53,54
 188 722 188 722 217 730 c 0,55,56
 232 734 232 734 247 730 c 0,57,58
 250 729 250 729 254 727 c 128,-1,59
 258 725 258 725 262.5 722 c 128,-1,60
 267 719 267 719 272 715 c 0,61,62
 273 713 273 713 275 711.5 c 128,-1,63
 277 710 277 710 278.5 708 c 128,-1,64
 280 706 280 706 281.5 703.5 c 128,-1,65
 283 701 283 701 283 699 c 0,66,67
 288 687 288 687 290 679.5 c 128,-1,68
 292 672 292 672 290.5 666 c 128,-1,69
 289 660 289 660 285 654 c 128,-1,70
 281 648 281 648 269 635 c 0,71,72
 268 634 268 634 268 633 c 2,73,-1
 268 632 l 1,74,-1
 267 632 l 1,75,-1
 266 631 l 1,76,-1
 266 630 l 2,77,78
 269 627 269 627 271 624.5 c 128,-1,79
 273 622 273 622 274.5 619.5 c 128,-1,80
 276 617 276 617 277 614 c 0,81,82
 280 607 280 607 282 599.5 c 128,-1,83
 284 592 284 592 284 584 c 0,84,85
 285 579 285 579 283.5 574 c 128,-1,86
 282 569 282 569 280 565 c 0,87,88
 275 557 275 557 270 549.5 c 128,-1,89
 265 542 265 542 258 535 c 0,90,91
 253 529 253 529 249 525 c 0,92,93
 246 521 246 521 240 518 c 0,94,95
 214 504 214 504 179 489 c 0,96,97
 158 480 158 480 136 475 c 1,98,-1
 134 474 l 2,99,100
 131 473 131 473 130 473 c 128,-1,101
 129 473 129 473 127 472.5 c 128,-1,102
 125 472 125 472 123.5 472 c 128,-1,103
 122 472 122 472 120.5 472.5 c 128,-1,104
 119 473 119 473 118 473.5 c 128,-1,105
 117 474 117 474 115.5 475.5 c 128,-1,106
 114 477 114 477 114 479 c 0,0,1
EndSplineSet
EndChar

StartChar: acute
Encoding: 180 180 117
Width: 304
Flags: W
LayerCount: 2
Fore
SplineSet
183 469 m 1,0,-1
 405 575 l 1,1,-1
 415 618 l 1,2,-1
 380 640 l 1,3,-1
 335 611 l 1,4,-1
 150 498 l 1,5,-1
 143 469 l 1,6,-1
 183 469 l 1,0,-1
EndSplineSet
EndChar

StartChar: mu
Encoding: 181 181 118
Width: 544
Flags: W
LayerCount: 2
Fore
SplineSet
13 -256 m 1,0,-1
 98 115 l 1,1,-1
 173 106 l 1,2,-1
 102 -200 l 1,3,-1
 13 -256 l 1,0,-1
181 -8 m 0,4,5
 135 6 135 6 117 33 c 0,6,7
 94 68 94 68 98 115 c 1,8,-1
 140 298 l 1,9,10
 149 339 149 339 153 358 c 0,11,12
 153 372 153 372 137 372 c 0,13,14
 120 372 120 372 101 347 c 2,15,-1
 64 300 l 1,16,-1
 52 311 l 1,17,18
 90 369 90 369 118.5 392.5 c 128,-1,19
 147 416 147 416 179 416 c 0,20,21
 243 416 243 416 215 291 c 1,22,-1
 174 115 l 2,23,24
 172 104 172 104 182 74 c 0,25,26
 186 61 186 61 196 53 c 0,27,28
 214 37 214 37 229 33 c 0,29,30
 250 33 250 33 264 33 c 0,31,32
 340 60 340 60 347 74 c 1,33,-1
 409 342 l 1,34,-1
 346 385 l 1,35,-1
 350 406 l 1,36,-1
 500 406 l 1,37,-1
 418 53 l 1,38,-1
 482 13 l 1,39,-1
 477 -8 l 1,40,-1
 328 -8 l 1,41,-1
 338 33 l 1,42,-1
 255 -8 l 1,43,44
 218 -8 218 -8 181 -8 c 0,4,5
EndSplineSet
EndChar

StartChar: paragraph
Encoding: 182 182 119
Width: 940
VWidth: 0
Flags: W
LayerCount: 2
Fore
SplineSet
391 0 m 1,0,-1
 559 729 l 1,1,-1
 615 729 l 1,2,-1
 446 0 l 1,3,-1
 391 0 l 1,0,-1
452 727 m 1,4,-1
 513 727 l 1,5,-1
 345 0 l 1,6,-1
 286 0 l 1,7,-1
 350 275 l 1,8,9
 68 292 68 292 115 500 c 0,10,11
 165 717 165 717 452 727 c 1,4,-1
EndSplineSet
EndChar

StartChar: periodcentered
Encoding: 183 183 120
Width: 418
Flags: W
LayerCount: 2
Fore
SplineSet
120 342 m 1,0,-1
 90 385 l 1,1,-1
 100 427 l 1,2,-1
 149 470 l 1,3,-1
 188 470 l 1,4,-1
 219 427 l 1,5,-1
 209 385 l 1,6,-1
 159 342 l 1,7,-1
 120 342 l 1,0,-1
89 384 m 1,8,-1
 99 427 l 1,9,-1
 89 384 l 1,8,-1
EndSplineSet
EndChar

StartChar: cedilla
Encoding: 184 184 121
Width: 167
Flags: W
LayerCount: 2
Fore
SplineSet
22 -22 m 1,0,-1
 12 -62 l 1,1,-1
 63 -81 l 1,2,3
 82 -100 82 -100 46 -126 c 1,4,-1
 10 -130 l 1,5,-1
 -24 -172 l 1,6,7
 46 -170 46 -170 87 -137 c 0,8,9
 124 -108 124 -108 111 -66 c 1,10,-1
 55 -45 l 1,11,-1
 61 -22 l 1,12,-1
 22 -22 l 1,0,-1
EndSplineSet
EndChar

StartChar: uni00B9
Encoding: 185 185 122
Width: 225
Flags: W
LayerCount: 2
Fore
SplineSet
156 488 m 1,0,-1
 193 647 l 1,1,-1
 150 647 l 1,2,-1
 155 669 l 1,3,-1
 248 725 l 1,4,-1
 268 725 l 1,5,-1
 213 488 l 1,6,-1
 156 488 l 1,0,-1
EndSplineSet
EndChar

StartChar: ordmasculine
Encoding: 186 186 123
Width: 498
Flags: W
LayerCount: 2
Fore
SplineSet
262 528 m 0,0,1
 270 530 270 530 287 550 c 0,2,3
 309 576 309 576 317 592 c 0,4,5
 327 614 327 614 327 635 c 0,6,7
 327 652 327 652 317 678 c 0,8,9
 309 697 309 697 302 699 c 0,10,11
 274 707 274 707 242 699 c 0,12,13
 234 697 234 697 218 678 c 0,14,15
 196 652 196 652 188 635 c 0,16,17
 178 613 178 613 178 592 c 0,18,19
 178 575 178 575 188 550 c 0,20,21
 196 531 196 531 203 528 c 0,22,23
 230 520 230 520 262 528 c 0,0,1
198 507 m 0,24,25
 185 510 185 510 163 528 c 0,26,27
 154 536 154 536 148 550 c 0,28,29
 138 576 138 576 138 592 c 0,30,31
 138 614 138 614 148 635 c 0,32,33
 156 652 156 652 178 678 c 0,34,35
 188 690 188 690 202 699 c 0,36,37
 232 717 232 717 247 720 c 0,38,39
 278 726 278 726 307 720 c 0,40,41
 320 717 320 717 342 699 c 0,42,43
 351 691 351 691 357 678 c 0,44,45
 367 652 367 652 367 635 c 0,46,47
 367 613 367 613 357 592 c 0,48,49
 349 575 349 575 327 550 c 0,50,51
 317 537 317 537 302 528 c 0,52,53
 272 510 272 510 258 507 c 0,54,55
 226 501 226 501 198 507 c 0,24,25
EndSplineSet
EndChar

StartChar: guillemotright
Encoding: 187 187 124
Width: 385
Flags: W
LayerCount: 2
Fore
SplineSet
45 194 m 1,0,-1
 295 364 l 1,1,-1
 305 407 l 1,2,-1
 133 578 l 1,3,-1
 124 535 l 1,4,-1
 260 385 l 1,5,-1
 54 236 l 1,6,-1
 45 194 l 1,0,-1
191 193 m 1,7,-1
 441 362 l 1,8,-1
 451 406 l 1,9,-1
 279 575 l 1,10,-1
 269 534 l 1,11,-1
 406 384 l 1,12,-1
 200 234 l 1,13,-1
 191 193 l 1,7,-1
EndSplineSet
EndChar

StartChar: questiondown
Encoding: 191 191 128
Width: 542
Flags: W
LayerCount: 2
Fore
SplineSet
426 725 m 1,0,-1
 454 683 l 1,1,-1
 444 640 l 1,2,-1
 396 597 l 1,3,-1
 356 597 l 1,4,-1
 327 640 l 1,5,-1
 337 683 l 1,6,-1
 385 725 l 1,7,-1
 426 725 l 1,0,-1
396 512 m 1,8,-1
 386 469 l 1,9,10
 374 443 374 443 357 427 c 2,11,-1
 209 299 l 1,12,13
 179 268 179 268 148 213 c 0,14,15
 136 191 136 191 138 171 c 0,16,17
 141 128 141 128 159 85 c 0,18,19
 173 47 173 47 189 43 c 0,20,21
 230 30 230 30 288 43 c 1,22,-1
 377 85 l 1,23,24
 402 106 l 1,25,-1
 387 128 l 1,26,27
 386 154 386 154 397 171 c 0,28,29
 417 200 417 200 446 213 c 0,30,31
 469 223 469 223 485 213 c 0,32,33
 509 199 509 199 516 171 c 0,34,35
 521 146 521 146 506 128 c 0,36,37
 469 86 469 86 407 43 c 0,38,39
 354 6 354 6 317 0 c 0,40,41
 235 -14 235 -14 159 0 c 0,42,43
 133 5 133 5 89 43 c 0,44,45
 69 60 69 60 60 85 c 0,46,47
 43 127 43 127 40 171 c 0,48,49
 39 189 39 189 49 213 c 0,50,51
 61 240 61 240 80 256 c 2,52,-1
 278 427 l 1,53,-1
 336 512 l 1,54,-1
 396 512 l 1,8,-1
EndSplineSet
EndChar

StartChar: AE
Encoding: 198 198 135
Width: 816
Flags: W
LayerCount: 2
Fore
SplineSet
550 725 m 1,0,-1
 48 43 l 1,1,-1
 3 22 l 1,2,-1
 -2 0 l 1,3,-1
 157 0 l 1,4,-1
 162 22 l 1,5,-1
 113 51 l 1,6,-1
 197 171 l 1,7,-1
 450 171 l 1,8,-1
 410 0 l 1,9,-1
 815 0 l 1,10,-1
 844 128 l 1,11,-1
 824 128 l 1,12,-1
 794 85 l 1,13,-1
 706 43 l 1,14,-1
 508 43 l 1,15,-1
 576 341 l 1,16,-1
 714 341 l 1,17,-1
 734 256 l 1,18,-1
 755 256 l 1,19,-1
 804 469 l 1,20,-1
 783 469 l 1,21,-1
 724 384 l 1,22,-1
 586 384 l 1,23,-1
 655 683 l 1,24,-1
 813 683 l 1,25,-1
 883 640 l 1,26,-1
 893 597 l 1,27,-1
 913 597 l 1,28,-1
 947 746 l 1,29,-1
 903 725 l 1,30,-1
 550 725 l 1,0,-1
459 213 m 1,31,-1
 226 213 l 1,32,-1
 568 679 l 1,33,-1
 459 213 l 1,31,-1
EndSplineSet
EndChar

StartChar: Eth
Encoding: 208 208 145
Width: 622
Flags: W
LayerCount: 2
Fore
SplineSet
99 430 m 1,0,-1
 368 430 l 1,1,-1
 357 381 l 1,2,-1
 88 381 l 1,3,-1
 99 430 l 1,0,-1
327 43 m 1,4,5
 383 52 383 52 417 85 c 0,6,7
 497 167 497 167 535 256 c 0,8,9
 582 362 582 362 584 469 c 0,10,11
 587 558 587 558 545 640 c 0,12,13
 528 673 528 673 475 683 c 1,14,-1
 317 683 l 1,15,-1
 169 43 l 1,16,-1
 327 43 l 1,4,5
0 0 m 1,17,-1
 5 22 l 1,18,-1
 94 63 l 1,19,-1
 232 662 l 1,20,-1
 163 705 l 1,21,-1
 167 725 l 1,22,-1
 485 725 l 1,23,24
 521 720 521 720 589 662 c 0,25,26
 618 636 618 636 634 597 c 0,27,28
 666 514 666 514 663 469 c 0,29,30
 657 363 657 363 614 256 c 0,31,32
 596 212 596 212 526 128 c 0,33,34
 493 90 493 90 451 63 c 0,35,36
 356 5 356 5 317 0 c 1,37,-1
 0 0 l 1,17,-1
EndSplineSet
EndChar

StartChar: multiply
Encoding: 215 215 152
Width: 423
Flags: W
LayerCount: 2
Fore
SplineSet
369 216 m 1,0,-1
 263 368 l 1,1,-1
 88 217 l 1,2,-1
 61 254 l 1,3,-1
 238 406 l 1,4,-1
 131 556 l 1,5,-1
 175 594 l 1,6,-1
 281 442 l 1,7,-1
 456 594 l 1,8,-1
 483 556 l 1,9,-1
 307 406 l 1,10,-1
 413 254 l 1,11,-1
 369 216 l 1,0,-1
EndSplineSet
EndChar

StartChar: Thorn
Encoding: 222 222 159
Width: 542
Flags: W
LayerCount: 2
Fore
SplineSet
-478 1197 m 1024,0,-1
365 208 m 2,1,2
 381 211 381 211 415 251 c 0,3,4
 458 301 458 301 475 336 c 0,5,6
 495 378 495 378 495 422 c 0,7,8
 495 455 495 455 474 507 c 0,9,10
 458 547 458 547 444 550 c 2,11,-1
 286 550 l 1,12,-1
 207 208 l 1,13,-1
 365 208 l 2,1,2
0 0 m 1,14,-1
 5 22 l 1,15,-1
 94 63 l 1,16,-1
 232 662 l 1,17,-1
 163 705 l 1,18,-1
 167 725 l 1,19,-1
 324 725 l 1,20,-1
 295 592 l 1,21,-1
 454 592 l 1,22,23
 524 550 l 1,24,25
 543 533 543 533 553 507 c 0,26,27
 574 455 574 455 574 422 c 0,28,29
 575 380 575 380 554 336 c 0,30,31
 539 304 539 304 494 251 c 0,32,33
 470 223 470 223 445 208 c 0,34,35
 385 171 385 171 355 166 c 1,36,-1
 197 166 l 1,37,-1
 174 63 l 1,38,-1
 243 22 l 1,39,-1
 238 0 l 1,40,-1
 0 0 l 1,14,-1
EndSplineSet
EndChar

StartChar: germandbls
Encoding: 223 223 160
Width: 491
Flags: W
LayerCount: 2
Fore
SplineSet
288 597 m 2,0,-1
 150 0 l 1,1,-1
 74 0 l 1,2,-1
 202 555 l 2,3,4
 208 574 208 574 287 683 c 0,5,6
 296 694 296 694 310 705 c 0,7,8
 342 725 342 725 351 725 c 2,9,10
 389 725 l 0,11,12
 390 722 390 722 422 705 c 0,13,14
 630 589 630 589 390 421 c 0,15,16
 379 413 379 413 362 407 c 0,17,18
 354 404 354 404 344 378 c 0,19,20
 336 343 336 343 334 336 c 0,21,22
 344 318 344 318 388 300 c 1,23,-1
 435 273 l 2,24,25
 456 260 456 260 482 232 c 0,26,27
 511 199 511 199 514 167 c 0,28,29
 508 140 508 140 494 81 c 0,30,31
 489 68 489 68 466 39 c 0,32,33
 455 26 455 26 443 17 c 0,34,35
 413 -3 413 -3 401 -4 c 0,36,37
 334 -4 334 -4 292 -4 c 0,38,39
 250 6 250 6 229 39 c 0,40,41
 233 56 233 56 239 81 c 0,42,43
 256 103 256 103 280 102 c 0,44,45
 297 102 297 102 312 81 c 1,46,-1
 320 39 l 1,47,48
 341 39 341 39 411 39 c 0,49,50
 426 41 426 41 439 52 c 0,51,52
 454 66 454 66 458 81 c 2,53,54
 468 124 l 1,55,56
 448 185 448 185 415 200 c 2,57,-1
 361 223 l 2,58,59
 328 236 328 236 315 250 c 0,60,61
 289 275 289 275 288 293 c 0,62,63
 295 322 295 322 307 378 c 0,64,65
 316 404 316 404 339 424 c 0,66,67
 509 583 509 583 357 665 c 1,68,-1
 317 640 l 1,69,70
 294 614 294 614 288 597 c 2,0,-1
EndSplineSet
EndChar

StartChar: ae
Encoding: 230 230 167
Width: 376
Flags: W
LayerCount: 2
Fore
SplineSet
539 262 m 1,0,-1
 335 262 l 1,1,-1
 356 340 l 2,2,3
 361 346 361 346 451 390 c 0,4,5
 481 390 481 390 510 390 c 0,6,7
 527 380 527 380 538 332 c 1,8,-1
 539 262 l 1,0,-1
279 49 m 1,9,10
 305 24 305 24 363 6 c 0,11,12
 412 6 412 6 450 6 c 1,13,-1
 553 71 l 1,14,-1
 563 113 l 1,15,-1
 460 49 l 1,16,17
 421 49 421 49 373 49 c 0,18,19
 335 61 335 61 326 92 c 0,20,21
 317 125 317 125 310 158 c 1,22,23
 325 220 l 1,24,-1
 588 220 l 1,25,-1
 597 262 l 1,26,27
 597 305 597 305 588 348 c 0,28,29
 583 374 583 374 568 390 c 0,30,31
 545 419 545 419 520 433 c 0,32,33
 469 460 469 460 401 408 c 0,34,35
 358 375 358 375 339 384 c 2,36,37
 275 427 l 1,38,39
 243 427 243 427 202 427 c 0,40,41
 150 413 150 413 119 384 c 0,42,43
 115 367 115 367 109 341 c 0,44,45
 116 319 116 319 140 319 c 0,46,47
 159 319 159 319 182 341 c 1,48,-1
 211 384 l 1,49,50
 224 384 224 384 265 384 c 0,51,52
 278 382 278 382 286 369.5 c 128,-1,53
 294 357 294 357 292 341 c 2,54,-1
 272 256 l 1,55,-1
 162 256 l 1,56,57
 134 250 134 250 80 213 c 0,58,59
 43 188 43 188 33 171 c 0,60,61
 23 129 23 129 14 85 c 0,62,63
 15 67 15 67 41 43 c 0,64,65
 82 4 82 4 103 0 c 0,66,67
 145 0 145 0 176 0 c 1,68,-1
 242 43 l 1,69,-1
 279 49 l 1,9,10
186 43 m 0,70,71
 149 43 149 43 113 43 c 0,72,73
 100 45 100 45 92 57 c 128,-1,74
 84 69 84 69 86 85 c 0,75,76
 96 127 96 127 106 171 c 0,77,78
 111 187 111 187 124.5 199 c 128,-1,79
 138 211 138 211 153 213 c 2,80,-1
 262 213 l 1,81,-1
 232 85 l 2,82,83
 228 70 228 70 214 56 c 0,84,85
 200 45 200 45 186 43 c 0,70,71
EndSplineSet
EndChar

StartChar: ccedilla
Encoding: 231 231 168
Width: 426
Flags: W
LayerCount: 2
Fore
SplineSet
153 -21 m 1,0,-1
 144 -60 l 1,1,-1
 191 -78 l 1,2,3
 208 -96 208 -96 175 -121 c 1,4,-1
 142 -125 l 1,5,-1
 110 -168 l 1,6,7
 175 -166 175 -166 213 -133 c 0,8,9
 248 -105 248 -105 236 -64 c 1,10,-1
 184 -44 l 1,11,-1
 189 -21 l 1,12,-1
 153 -21 l 1,0,-1
140 -6 m 0,13,14
 115 0 115 0 77 35 c 0,15,16
 58 50 58 50 50 76 c 0,17,18
 32 125 32 125 32 159 c 0,19,20
 42 200 42 200 51 241 c 0,21,22
 65 274 65 274 107 323 c 0,23,24
 126 348 126 348 152 364 c 0,25,26
 206 400 206 400 236 406 c 0,27,28
 290 406 290 406 345 406 c 0,29,30
 388 395 388 395 408 363 c 0,31,32
 404 346 404 346 398 320 c 0,33,34
 381 298 381 298 356 298 c 0,35,36
 337 298 337 298 325 320 c 1,37,-1
 317 363 l 1,38,39
 275 363 275 363 226 363 c 0,40,41
 210 358 210 358 179 321 c 0,42,43
 138 272 138 272 124 240 c 0,44,45
 114 199 114 199 105 158 c 0,46,47
 104 125 104 125 122 75 c 0,48,49
 136 38 136 38 150 35 c 0,50,51
 204 35 204 35 259 35 c 1,52,-1
 383 95 l 1,53,-1
 373 54 l 1,54,-1
 250 -6 l 1,55,56
 202 -6 202 -6 140 -6 c 0,13,14
EndSplineSet
EndChar

StartChar: edieresis
Encoding: 235 235 172
Width: 426
Flags: W
LayerCount: 2
Fore
SplineSet
444 514 m 1,0,-1
 398 472 l 1,1,-1
 361 472 l 1,2,-1
 335 514 l 1,3,-1
 345 557 l 1,4,-1
 391 600 l 1,5,-1
 427 600 l 1,6,-1
 454 557 l 1,7,-1
 444 514 l 1,0,-1
267 512 m 1,8,-1
 220 469 l 1,9,-1
 183 469 l 1,10,-1
 157 512 l 1,11,-1
 167 555 l 1,12,-1
 213 597 l 1,13,-1
 250 597 l 1,14,-1
 277 555 l 1,15,-1
 267 512 l 1,8,-1
346 256 m 1,16,-1
 340 326 l 1,17,18
 324 374 324 374 303 384 c 0,19,20
 267 384 267 384 231 384 c 0,21,22
 207 375 207 375 169 328 c 1,23,-1
 127 256 l 1,24,-1
 346 256 l 1,16,-1
142 0 m 0,25,26
 117 6 117 6 78 43 c 0,27,28
 59 59 59 59 52 85 c 0,29,30
 35 136 35 136 35 171 c 0,31,32
 45 214 45 214 55 256 c 0,33,34
 70 290 70 290 111 341 c 0,35,36
 131 367 131 367 157 384 c 0,37,38
 208 418 208 418 240 427 c 0,39,40
 277 427 277 427 313 427 c 0,41,42
 340 419 340 419 376 384 c 0,43,44
 395 368 395 368 403 341 c 0,45,46
 418 298 418 298 420 256 c 1,47,-1
 410 213 l 1,48,-1
 118 213 l 1,49,-1
 108 171 l 1,50,51
 110 129 110 129 125 85 c 0,52,53
 138 46 138 46 152 43 c 0,54,55
 206 43 206 43 261 43 c 1,56,-1
 385 106 l 1,57,-1
 375 63 l 1,58,-1
 251 0 l 1,59,60
 204 0 204 0 142 0 c 0,25,26
EndSplineSet
EndChar

StartChar: igrave
Encoding: 236 236 173
Width: 285
Flags: W
LayerCount: 2
Fore
SplineSet
174 110 m 1,0,1
 164 66 164 66 162 48 c 0,2,3
 162 34 162 34 177 34 c 0,4,5
 194 34 194 34 214 60 c 2,6,-1
 251 108 l 1,7,-1
 263 98 l 1,8,9
 225 38 225 38 196.5 14 c 128,-1,10
 168 -10 168 -10 135 -10 c 0,11,12
 70 -10 70 -10 99 117 c 1,13,-1
 156 362 l 1,14,-1
 93 406 l 1,15,-1
 98 427 l 1,16,-1
 248 427 l 1,17,-1
 174 110 l 1,0,1
271 473 m 1,18,-1
 110 579 l 1,19,-1
 120 622 l 1,20,-1
 162 644 l 1,21,-1
 192 615 l 1,22,-1
 314 502 l 1,23,-1
 308 473 l 1,24,-1
 271 473 l 1,18,-1
EndSplineSet
EndChar

StartChar: iacute
Encoding: 237 237 174
Width: 285
Flags: W
LayerCount: 2
Fore
SplineSet
172 106 m 1,0,1
 162 64 162 64 160 47 c 0,2,3
 160 34 160 34 176 34 c 0,4,5
 193 34 193 34 213 58 c 2,6,-1
 250 104 l 1,7,-1
 262 94 l 1,8,9
 224 36 224 36 196.5 13 c 128,-1,10
 169 -10 169 -10 135 -10 c 0,11,12
 70 -10 70 -10 98 112 c 1,13,-1
 142 300 l 1,14,15
 152 341 152 341 154 358 c 0,16,17
 154 371 154 371 138 372 c 0,18,19
 121 372 121 372 101 347 c 2,20,-1
 65 302 l 1,21,-1
 53 311 l 1,22,23
 91 369 91 369 118.5 392.5 c 128,-1,24
 146 416 146 416 179 416 c 0,25,26
 244 416 244 416 216 295 c 0,27,-1
 172 106 l 1,0,1
142 462 m 1,28,-1
 354 578 l 1,29,-1
 365 626 l 1,30,-1
 334 650 l 1,31,-1
 290 618 l 1,32,-1
 113 494 l 1,33,-1
 106 462 l 1,34,-1
 142 462 l 1,28,-1
EndSplineSet
EndChar

StartChar: icircumflex
Encoding: 238 238 175
Width: 284
Flags: W
LayerCount: 2
Fore
SplineSet
174 110 m 1,0,1
 164 66 164 66 162 48 c 0,2,3
 162 34 162 34 177 34 c 0,4,5
 194 34 194 34 214 60 c 2,6,-1
 251 108 l 1,7,-1
 263 98 l 1,8,9
 225 38 225 38 196.5 14 c 128,-1,10
 168 -10 168 -10 135 -10 c 0,11,12
 70 -10 70 -10 99 117 c 1,13,-1
 156 362 l 1,14,-1
 93 406 l 1,15,-1
 98 427 l 1,16,-1
 247 427 l 1,17,-1
 174 110 l 1,0,1
70 482 m 1,18,-1
 77 513 l 1,19,-1
 239 620 l 1,20,-1
 354 513 l 1,21,-1
 346 482 l 1,22,-1
 232 588 l 1,23,-1
 70 482 l 1,18,-1
EndSplineSet
EndChar

StartChar: idieresis
Encoding: 239 239 176
Width: 283
Flags: W
LayerCount: 2
Fore
SplineSet
356 519 m 1,0,-1
 309 477 l 1,1,-1
 272 477 l 1,2,-1
 245 519 l 1,3,-1
 255 562 l 1,4,-1
 302 605 l 1,5,-1
 339 605 l 1,6,-1
 366 562 l 1,7,-1
 356 519 l 1,0,-1
176 517 m 1,8,-1
 129 474 l 1,9,-1
 93 474 l 1,10,-1
 67 517 l 1,11,-1
 77 560 l 1,12,-1
 122 602 l 1,13,-1
 159 602 l 1,14,-1
 186 560 l 1,15,-1
 176 517 l 1,8,-1
174 110 m 1,16,17
 164 66 164 66 161 48 c 0,18,19
 161 34 161 34 177 34 c 0,20,21
 194 34 194 34 214 60 c 2,22,-1
 251 108 l 1,23,-1
 263 98 l 1,24,25
 225 38 225 38 196.5 14 c 128,-1,26
 168 -10 168 -10 135 -10 c 0,27,28
 70 -10 70 -10 99 117 c 1,29,-1
 156 362 l 1,30,-1
 93 406 l 1,31,-1
 98 427 l 1,32,-1
 247 427 l 1,33,-1
 174 110 l 1,16,17
EndSplineSet
EndChar

StartChar: eth
Encoding: 240 240 177
Width: 458
Flags: W
LayerCount: 2
Fore
SplineSet
142 0 m 0,0,1
 117 6 117 6 78 43 c 0,2,3
 59 59 59 59 52 85 c 0,4,5
 35 136 35 136 35 171 c 0,6,7
 45 214 45 214 55 256 c 0,8,9
 70 290 70 290 111 341 c 0,10,11
 131 367 131 367 157 384 c 0,12,13
 212 421 212 421 240 427 c 0,14,15
 294 427 294 427 350 427 c 0,16,17
 352 427 352 427 353 426 c 2,18,-1
 330 572 l 1,19,-1
 201 572 l 1,20,-1
 191 622 l 1,21,-1
 323 622 l 1,22,-1
 309 712 l 1,23,-1
 359 710 l 1,24,-1
 379 622 l 1,25,-1
 492 622 l 1,26,-1
 497 572 l 1,27,-1
 389 572 l 1,28,-1
 446 319 l 2,29,30
 456 282 456 282 456 256 c 0,31,32
 446 213 446 213 436 171 c 0,33,34
 421 137 421 137 380 85 c 0,35,36
 359 59 359 59 334 43 c 0,37,38
 279 6 279 6 251 0 c 0,39,40
 196 0 196 0 142 0 c 0,0,1
261 43 m 0,41,42
 276 47 276 47 307 85 c 0,43,44
 348 136 348 136 363 171 c 0,45,46
 373 214 373 214 383 256 c 0,47,48
 384 290 384 290 366 341 c 0,49,50
 353 380 353 380 340 384 c 0,51,52
 284 384 284 384 231 384 c 0,53,54
 216 380 216 380 184 341 c 0,55,56
 142 290 142 290 127 256 c 0,57,58
 117 213 117 213 108 171 c 0,59,60
 107 137 107 137 125 85 c 0,61,62
 138 46 138 46 152 43 c 0,63,64
 207 43 207 43 261 43 c 0,41,42
EndSplineSet
EndChar

StartChar: odieresis
Encoding: 246 246 183
Width: 458
Flags: W
LayerCount: 2
Fore
SplineSet
463 513 m 1,0,-1
 416 471 l 1,1,-1
 380 471 l 1,2,-1
 354 513 l 1,3,-1
 363 556 l 1,4,-1
 409 599 l 1,5,-1
 446 599 l 1,6,-1
 473 556 l 1,7,-1
 463 513 l 1,0,-1
286 513 m 1,8,-1
 239 470 l 1,9,-1
 203 470 l 1,10,-1
 177 513 l 1,11,-1
 186 556 l 1,12,-1
 232 598 l 1,13,-1
 269 598 l 1,14,-1
 296 556 l 1,15,-1
 286 513 l 1,8,-1
261 43 m 0,16,17
 276 47 276 47 307 85 c 0,18,19
 348 136 348 136 363 171 c 0,20,21
 373 214 373 214 383 256 c 0,22,23
 384 290 384 290 366 341 c 0,24,25
 353 380 353 380 340 384 c 0,26,27
 284 384 284 384 231 384 c 0,28,29
 216 380 216 380 184 341 c 0,30,31
 142 290 142 290 127 256 c 0,32,33
 117 213 117 213 108 171 c 0,34,35
 107 137 107 137 125 85 c 0,36,37
 138 46 138 46 152 43 c 0,38,39
 207 43 207 43 261 43 c 0,16,17
142 0 m 0,40,41
 117 6 117 6 78 43 c 0,42,43
 59 59 59 59 52 85 c 0,44,45
 35 136 35 136 35 171 c 0,46,47
 45 214 45 214 55 256 c 0,48,49
 70 290 70 290 111 341 c 0,50,51
 131 367 131 367 157 384 c 0,52,53
 212 421 212 421 240 427 c 0,54,55
 294 427 294 427 350 427 c 0,56,57
 375 421 375 421 413 384 c 0,58,59
 432 368 432 368 439 341 c 0,60,61
 457 290 457 290 456 256 c 0,62,63
 446 213 446 213 436 171 c 0,64,65
 421 137 421 137 380 85 c 0,66,67
 359 59 359 59 334 43 c 0,68,69
 279 6 279 6 251 0 c 0,70,71
 196 0 196 0 142 0 c 0,40,41
EndSplineSet
EndChar

StartChar: oslash
Encoding: 248 248 185
Width: 458
Flags: W
LayerCount: 2
Fore
SplineSet
-4 0 m 1,0,-1
 448 435 l 1,1,-1
 485 435 l 1,2,-1
 32 0 l 1,3,-1
 -4 0 l 1,0,-1
261 43 m 0,4,5
 276 47 276 47 307 85 c 0,6,7
 348 136 348 136 363 171 c 0,8,9
 373 214 373 214 383 256 c 0,10,11
 384 290 384 290 366 341 c 0,12,13
 353 380 353 380 340 384 c 0,14,15
 284 384 284 384 231 384 c 0,16,17
 216 380 216 380 184 341 c 0,18,19
 142 290 142 290 127 256 c 0,20,21
 117 213 117 213 108 171 c 0,22,23
 107 137 107 137 125 85 c 0,24,25
 138 46 138 46 152 43 c 0,26,27
 207 43 207 43 261 43 c 0,4,5
142 0 m 0,28,29
 117 6 117 6 78 43 c 0,30,31
 59 59 59 59 52 85 c 0,32,33
 35 136 35 136 35 171 c 0,34,35
 45 214 45 214 55 256 c 0,36,37
 70 290 70 290 111 341 c 0,38,39
 131 367 131 367 157 384 c 0,40,41
 212 421 212 421 240 427 c 0,42,43
 294 427 294 427 350 427 c 0,44,45
 375 421 375 421 413 384 c 0,46,47
 432 368 432 368 439 341 c 0,48,49
 457 290 457 290 456 256 c 0,50,51
 446 213 446 213 436 171 c 0,52,53
 421 137 421 137 380 85 c 0,54,55
 359 59 359 59 334 43 c 0,56,57
 279 6 279 6 251 0 c 0,58,59
 196 0 196 0 142 0 c 0,28,29
EndSplineSet
EndChar

StartChar: udieresis
Encoding: 252 252 189
Width: 544
Flags: W
LayerCount: 2
Fore
SplineSet
487 514 m 1,0,-1
 439 472 l 1,1,-1
 402 472 l 1,2,-1
 376 514 l 1,3,-1
 386 557 l 1,4,-1
 432 600 l 1,5,-1
 469 600 l 1,6,-1
 497 557 l 1,7,-1
 487 514 l 1,0,-1
308 512 m 1,8,-1
 261 467 l 1,9,-1
 223 467 l 1,10,-1
 196 512 l 1,11,-1
 206 555 l 1,12,-1
 253 597 l 1,13,-1
 291 597 l 1,14,-1
 318 555 l 1,15,-1
 308 512 l 1,8,-1
184 0 m 0,16,17
 138 13 138 13 119 40 c 0,18,19
 96 74 96 74 100 121 c 1,20,-1
 142 300 l 1,21,22
 152 342 152 342 154 358 c 0,23,24
 154 371 154 371 138 372 c 0,25,26
 121 372 121 372 101 347 c 2,27,-1
 65 302 l 1,28,-1
 53 311 l 1,29,30
 91 369 91 369 119 392.5 c 128,-1,31
 147 416 147 416 180 416 c 0,32,33
 245 416 245 416 217 293 c 1,34,-1
 177 121 l 2,35,36
 175 111 175 111 186 80 c 0,37,38
 190 68 190 68 199 59 c 0,39,40
 218 43 218 43 231 40 c 0,41,42
 252 40 252 40 268 40 c 0,43,44
 343 66 343 66 350 80 c 1,45,-1
 410 342 l 1,46,-1
 347 385 l 1,47,-1
 352 406 l 1,48,-1
 500 406 l 1,49,-1
 420 59 l 1,50,-1
 485 21 l 1,51,-1
 480 0 l 1,52,-1
 331 0 l 1,53,-1
 341 40 l 1,54,-1
 258 0 l 1,55,56
 221 0 221 0 184 0 c 0,16,17
EndSplineSet
EndChar

StartChar: thorn
Encoding: 254 254 191
Width: 499
Flags: W
LayerCount: 2
Fore
SplineSet
304 43 m 0,0,1
 319 47 319 47 346 63 c 0,2,3
 359 71 359 71 370 85 c 0,4,5
 394 115 394 115 398 128 c 0,6,7
 418 213 418 213 437 299 c 0,8,9
 439 311 439 311 429 341 c 0,10,11
 425 353 425 353 415 362 c 0,12,13
 397 379 397 379 383 384 c 0,14,15
 361 384 361 384 347 384 c 0,16,17
 226 336 226 336 223 319 c 0,18,19
 197 207 197 207 174 106 c 0,20,21
 170 90 170 90 269 43 c 0,22,23
 282 43 282 43 304 43 c 0,0,1
4 -299 m 1,24,-1
 224 664 l 1,25,-1
 161 707 l 1,26,-1
 166 727 l 1,27,-1
 314 727 l 1,28,-1
 233 362 l 1,29,-1
 357 427 l 1,30,31
 390 427 390 427 430 427 c 0,32,33
 476 413 476 413 493 384 c 0,34,35
 514 350 514 350 510 299 c 0,36,37
 490 214 490 214 470 128 c 0,38,39
 451 77 451 77 414 43 c 0,40,41
 383 14 383 14 331 0 c 0,42,43
 291 0 291 0 259 0 c 1,44,-1
 164 63 l 1,45,-1
 95 -234 l 1,46,-1
 158 -278 l 1,47,-1
 153 -299 l 1,48,-1
 4 -299 l 1,24,-1
EndSplineSet
EndChar

StartChar: florin
Encoding: 402 402 193
Width: 308
Flags: W
LayerCount: 2
Fore
SplineSet
72 -131 m 1,0,1
 55 -158 55 -158 -31 -255 c 0,2,3
 -42 -268 -42 -268 -56 -276 c 1,4,-1
 219 362 l 1,5,-1
 156 362 l 1,6,-1
 174 406 l 1,7,-1
 237 406 l 1,8,-1
 296 543 l 1,9,10
 314 573 314 573 403 680 c 0,11,12
 414 694 414 694 429 702 c 0,13,14
 455 719 455 719 469 725 c 1,15,16
 485 725 485 725 503 725 c 1,17,18
 528 717 528 717 526 705 c 1,19,20
 513 673 513 673 499 640 c 1,21,22
 482 618 482 618 457 618 c 0,23,24
 441 618 441 618 433 640 c 1,25,-1
 443 662 l 1,26,27
 439 662 439 662 417 638 c 0,28,29
 387 604 387 604 382 591 c 2,30,-1
 302 406 l 1,31,-1
 429 406 l 1,32,-1
 410 362 l 1,33,-1
 283 362 l 1,34,-1
 72 -131 l 1,0,1
EndSplineSet
EndChar

StartChar: quoteleft
Encoding: 8216 8216 194
Width: 185
Flags: W
LayerCount: 2
Fore
SplineSet
158 512 m 1,0,-1
 128 555 l 1,1,-1
 148 640 l 1,2,-1
 178 683 l 1,3,-1
 226 725 l 1,4,-1
 246 725 l 1,5,-1
 237 683 l 1,6,-1
 207 669 l 1,7,-1
 188 640 l 1,8,-1
 227 640 l 1,9,-1
 257 597 l 1,10,-1
 247 555 l 1,11,-1
 197 512 l 1,12,-1
 158 512 l 1,0,-1
EndSplineSet
EndChar

StartChar: quoteright
Encoding: 8217 8217 195
Width: 185
Flags: W
LayerCount: 2
Fore
SplineSet
158 512 m 1,0,-1
 168 555 l 1,1,-1
 197 568 l 1,2,-1
 217 597 l 1,3,-1
 178 597 l 1,4,-1
 148 640 l 1,5,-1
 158 683 l 1,6,-1
 207 725 l 1,7,-1
 246 725 l 1,8,-1
 277 683 l 1,9,-1
 257 597 l 1,10,-1
 227 555 l 1,11,-1
 177 512 l 1,12,-1
 158 512 l 1,0,-1
EndSplineSet
EndChar

StartChar: quotedblleft
Encoding: 8220 8220 196
Width: 344
Flags: W
LayerCount: 2
Fore
SplineSet
158 512 m 1,0,-1
 128 555 l 1,1,-1
 148 640 l 1,2,-1
 178 683 l 1,3,-1
 226 725 l 1,4,-1
 246 725 l 1,5,-1
 237 683 l 1,6,-1
 207 669 l 1,7,-1
 188 640 l 1,8,-1
 227 640 l 1,9,-1
 257 597 l 1,10,-1
 247 555 l 1,11,-1
 197 512 l 1,12,-1
 158 512 l 1,0,-1
316 512 m 1,13,-1
 287 555 l 1,14,-1
 307 640 l 1,15,-1
 337 683 l 1,16,-1
 385 725 l 1,17,-1
 405 725 l 1,18,-1
 396 683 l 1,19,-1
 366 669 l 1,20,-1
 346 640 l 1,21,-1
 386 640 l 1,22,-1
 416 597 l 1,23,-1
 406 555 l 1,24,-1
 356 512 l 1,25,-1
 316 512 l 1,13,-1
EndSplineSet
EndChar

StartChar: quotedblright
Encoding: 8221 8221 197
Width: 344
Flags: W
LayerCount: 2
Fore
SplineSet
158 512 m 1,0,-1
 168 555 l 1,1,-1
 197 568 l 1,2,-1
 217 597 l 1,3,-1
 178 597 l 1,4,-1
 148 640 l 1,5,-1
 158 683 l 1,6,-1
 207 725 l 1,7,-1
 246 725 l 1,8,-1
 277 683 l 1,9,-1
 257 597 l 1,10,-1
 227 555 l 1,11,-1
 177 512 l 1,12,-1
 158 512 l 1,0,-1
316 512 m 1,13,-1
 326 555 l 1,14,-1
 356 568 l 1,15,-1
 376 597 l 1,16,-1
 336 597 l 1,17,-1
 307 640 l 1,18,-1
 317 683 l 1,19,-1
 365 725 l 1,20,-1
 405 725 l 1,21,-1
 436 683 l 1,22,-1
 416 597 l 1,23,-1
 387 555 l 1,24,-1
 336 512 l 1,25,-1
 316 512 l 1,13,-1
EndSplineSet
EndChar
